<?xml version="1.0" ?>
<!DOCTYPE svg  PUBLIC '-//W3C//DTD SVG 1.1//EN'  'http://www.w3.org/Graphics/SVG/1.1/DTD/svg11.dtd'>
<!-- Uploaded to: SVG Repo, www.svgrepo.com, Generator: SVG Repo Mixer Tools -->
<svg fill="#000000" width="800px" height="800px" viewBox="0 0 64 64" style="fill-rule:evenodd;clip-rule:evenodd;stroke-linejoin:round;stroke-miterlimit:2;" version="1.1" xml:space="preserve" xmlns="http://www.w3.org/2000/svg" xmlns:serif="http://www.serif.com/" xmlns:xlink="http://www.w3.org/1999/xlink">
<g transform="matrix(1,0,0,1,-192,0)">
<g id="Icon">
<path d="M252,53.497L252,52.474C252,50.817 250.657,49.474 249,49.474L199,49.474C197.343,49.474 196,50.817 196,52.474L196,53.497C196,55.154 197.343,56.497 199,56.497L249,56.497C250.657,56.497 252,55.154 252,53.497Z" style="fill:rgb(245,240,229);"/>
<path d="M250.133,49.696C250.276,50.045 250.355,50.428 250.355,50.829L250.355,51.852C250.355,53.509 249.011,54.852 247.355,54.852L197.355,54.852C196.954,54.852 196.571,54.773 196.221,54.631C196.668,55.726 197.744,56.497 199,56.497L249,56.497C250.657,56.497 252,55.154 252,53.497L252,52.474C252,51.218 251.228,50.143 250.133,49.696Z" style="fill:rgb(234,222,199);"/>
<path d="M244.25,51.474C244.802,51.474 245.25,51.026 245.25,50.474L245.25,27.396C245.25,25.739 243.907,24.396 242.25,24.396L205.75,24.396C204.093,24.396 202.75,25.739 202.75,27.396L202.75,50.474C202.75,51.026 203.198,51.474 203.75,51.474L244.25,51.474Z" style="fill:rgb(248,172,58);"/>
<path d="M236.154,24.396C237.811,24.396 239.154,25.739 239.154,27.396L239.154,50.474C239.154,51.026 238.707,51.474 238.154,51.474L244.25,51.474C244.802,51.474 245.25,51.026 245.25,50.474L245.25,27.396C245.25,25.739 243.907,24.396 242.25,24.396L236.154,24.396Z" style="fill:rgb(243,148,4);"/>
<path d="M245.25,45.476L228.381,45.451L202.75,45.451L202.75,50.474C202.75,51.026 203.198,51.474 203.75,51.474L244.25,51.474C244.802,51.474 245.25,51.026 245.25,50.474L245.25,45.476Z" style="fill:rgb(99,48,1);"/>
<path d="M239.154,45.471L239.154,47.027C239.154,47.579 238.707,48.027 238.154,48.027L202.75,48.027L202.75,50.474C202.75,51.026 203.198,51.474 203.75,51.474L244.25,51.474C244.802,51.474 245.25,51.026 245.25,50.474L245.25,45.476L239.154,45.471Z" style="fill:rgb(74,36,1);"/>
<g transform="matrix(1,0,0,0.934213,-0.16148,1.66558)">
<path d="M223.15,11.56L223.15,25.318C223.15,25.909 223.598,26.388 224.15,26.388C224.702,26.388 225.15,25.909 225.15,25.318L225.15,11.56C225.15,10.97 224.702,10.49 224.15,10.49C223.598,10.49 223.15,10.97 223.15,11.56Z" style="fill:rgb(245,240,229);"/>
</g>
<path d="M202.75,31.754L205.082,35.17C205.451,35.71 206.063,36.034 206.717,36.034C207.371,36.034 207.983,35.71 208.352,35.17C209.132,34.027 210.063,32.663 210.843,31.521C211.212,30.98 211.824,30.657 212.478,30.657C213.132,30.657 213.744,30.98 214.113,31.521C214.893,32.663 215.824,34.027 216.604,35.17C216.973,35.71 217.585,36.034 218.239,36.034C218.893,36.034 219.505,35.71 219.874,35.17C220.654,34.027 221.585,32.663 222.365,31.521C222.734,30.98 223.346,30.657 224,30.657C224.654,30.657 225.266,30.98 225.635,31.521C226.415,32.663 227.346,34.027 228.126,35.17C228.495,35.71 229.107,36.034 229.761,36.034C230.415,36.034 231.027,35.71 231.396,35.17C232.176,34.027 233.107,32.663 233.887,31.521C234.256,30.98 234.868,30.657 235.522,30.657C236.176,30.657 236.788,30.98 237.157,31.521C237.937,32.663 238.868,34.027 239.648,35.17C240.017,35.71 240.629,36.034 241.283,36.034C241.937,36.034 242.549,35.71 242.918,35.17L245.25,31.754L245.25,27.396C245.25,25.739 243.907,24.396 242.25,24.396L205.75,24.396C204.093,24.396 202.75,25.739 202.75,27.396L202.75,31.754Z" style="fill:rgb(99,48,1);"/>
<path d="M236.154,24.396C237.811,24.396 239.154,25.739 239.154,27.396L239.154,34.447L239.648,35.17C240.017,35.71 240.629,36.034 241.283,36.034C241.937,36.034 242.549,35.71 242.918,35.17L245.25,31.754L245.25,27.396C245.25,25.739 243.907,24.396 242.25,24.396L236.154,24.396Z" style="fill:rgb(74,36,1);"/>
<path d="M223.02,7.971L222.989,9.021C222.973,9.572 223.408,10.033 223.96,10.049C224.511,10.065 224.972,9.63 224.988,9.079L225.019,8.029C225.035,7.477 224.6,7.016 224.048,7C223.496,6.984 223.036,7.419 223.02,7.971Z" style="fill:rgb(240,104,45);"/>
</g>
</g>
</svg>