<?xml version="1.0" ?>
<!DOCTYPE svg  PUBLIC '-//W3C//DTD SVG 1.1//EN'  'http://www.w3.org/Graphics/SVG/1.1/DTD/svg11.dtd'>
<!-- Uploaded to: SVG Repo, www.svgrepo.com, Generator: SVG Repo Mixer Tools -->
<svg fill="#000000" width="800px" height="800px" viewBox="0 0 64 64" style="fill-rule:evenodd;clip-rule:evenodd;stroke-linejoin:round;stroke-miterlimit:2;" version="1.1" xml:space="preserve" xmlns="http://www.w3.org/2000/svg" xmlns:serif="http://www.serif.com/" xmlns:xlink="http://www.w3.org/1999/xlink">
<g transform="matrix(1,0,0,1,-96,-96)">
<g id="Icon">
<g transform="matrix(1.08825,0,0,1.17759,-9.1524,-31.2364)">
<path d="M113.154,138.706L113.154,159C113.154,159.469 113.566,159.849 114.073,159.849C114.58,159.849 114.992,159.469 114.992,159L114.992,138.706C114.992,138.237 114.58,137.856 114.073,137.856C113.566,137.856 113.154,138.237 113.154,138.706Z" style="fill:rgb(181,129,49);"/>
</g>
<path d="M114.496,131.231C114.799,131.403 115.004,131.728 115.004,132.102L115.004,156C115.004,156.373 114.799,156.699 114.496,156.871C114.641,156.953 114.809,157 114.988,157C115.54,157 115.988,156.552 115.988,156L115.988,132.102C115.988,131.55 115.54,131.102 114.988,131.102C114.809,131.102 114.641,131.149 114.496,131.231Z" style="fill:rgb(154,110,42);"/>
<path d="M123,107.094C123.009,104.952 122.164,102.895 120.653,101.377C119.141,99.86 117.088,99.007 114.946,99.007C114.945,99.007 114.945,99.007 114.944,99.007C110.597,99.007 107.068,102.521 107.05,106.868C107.028,112.219 106.998,119.623 106.976,125.029C106.967,127.171 107.811,129.228 109.323,130.746C110.834,132.263 112.888,133.116 115.029,133.116C115.03,133.116 115.031,133.116 115.031,133.116C119.378,133.116 122.907,129.602 122.925,125.255L123,107.094Z" style="fill:rgb(248,172,58);"/>
<path d="M113.523,99.134C115.134,99.424 116.63,100.201 117.801,101.377C119.312,102.895 120.157,104.952 120.148,107.094L120.073,125.255C120.057,129.117 117.27,132.321 113.601,132.989C114.069,133.073 114.547,133.116 115.029,133.116C115.03,133.116 115.031,133.116 115.031,133.116C119.378,133.116 122.907,129.602 122.925,125.255L123,107.094C123.009,104.952 122.164,102.895 120.653,101.377C119.141,99.86 117.088,99.007 114.946,99.007C114.945,99.007 114.945,99.007 114.944,99.007C114.459,99.007 113.984,99.05 113.523,99.134Z" style="fill:rgb(243,148,4);"/>
<g transform="matrix(1.08825,0,0,1.17759,16.9388,-31.2364)">
<path d="M113.154,138.706L113.154,159C113.154,159.469 113.566,159.849 114.073,159.849C114.58,159.849 114.992,159.469 114.992,159L114.992,138.706C114.992,138.237 114.58,137.856 114.073,137.856C113.566,137.856 113.154,138.237 113.154,138.706Z" style="fill:rgb(181,129,49);"/>
</g>
<path d="M140.579,131.236C140.878,131.409 141.079,131.732 141.079,132.102L141.079,156C141.079,156.37 140.878,156.693 140.579,156.866C140.726,156.951 140.897,157 141.079,157C141.631,157 142.079,156.552 142.079,156L142.079,132.102C142.079,131.55 141.631,131.102 141.079,131.102C140.897,131.102 140.726,131.15 140.579,131.236Z" style="fill:rgb(154,110,42);"/>
<path d="M149.091,107.094C149.1,104.952 148.255,102.895 146.744,101.377C145.233,99.86 143.179,99.007 141.037,99.007C141.037,99.007 141.036,99.007 141.035,99.007C136.688,99.007 133.159,102.521 133.142,106.868C133.12,112.219 133.089,119.623 133.067,125.029C133.058,127.171 133.903,129.228 135.414,130.746C136.925,132.263 138.979,133.116 141.121,133.116C141.121,133.116 141.122,133.116 141.122,133.116C145.469,133.116 148.998,129.602 149.016,125.255L149.091,107.094Z" style="fill:rgb(248,172,58);"/>
<path d="M139.582,99.14C141.181,99.435 142.666,100.209 143.829,101.377C145.34,102.895 146.185,104.952 146.176,107.094L146.101,125.255C146.085,129.105 143.315,132.303 139.66,132.983C140.139,133.071 140.627,133.116 141.121,133.116C141.121,133.116 141.122,133.116 141.122,133.116C145.469,133.116 148.998,129.602 149.016,125.255L149.091,107.094C149.1,104.952 148.255,102.895 146.744,101.377C145.233,99.86 143.179,99.007 141.037,99.007C141.037,99.007 141.036,99.007 141.035,99.007C140.539,99.007 140.053,99.052 139.582,99.14Z" style="fill:rgb(243,148,4);"/>
<g transform="matrix(0.00711104,-1.04433,0.54619,0.004015,48.1439,284.529)">
<path d="M151.184,124.425C151.184,124.425 152.034,121.922 152.804,119.653C152.893,119.391 153.046,119.234 153.209,119.236C153.373,119.238 153.524,119.4 153.611,119.664L154.634,122.774C155.072,124.107 155.837,124.916 156.66,124.917C157.484,124.918 158.249,124.109 158.687,122.777C159.013,121.786 159.365,120.715 159.691,119.723C159.779,119.457 159.932,119.295 160.096,119.295C160.261,119.296 160.414,119.457 160.502,119.724L161.505,122.774C161.943,124.107 162.708,124.916 163.531,124.917C164.354,124.918 165.12,124.109 165.558,122.777C165.884,121.786 166.236,120.715 166.562,119.723C166.649,119.457 166.803,119.295 166.967,119.295C167.132,119.296 167.285,119.457 167.372,119.724L168.31,122.575C168.759,123.94 169.55,124.753 170.393,124.716C171.235,124.679 172.006,123.797 172.42,122.394L174.005,117.031C174.265,116.152 174.103,115.034 173.642,114.536C173.182,114.039 172.598,114.349 172.338,115.228L170.753,120.591C170.67,120.871 170.516,121.048 170.347,121.055C170.179,121.063 170.021,120.9 169.931,120.627L168.994,117.776C168.555,116.444 167.79,115.634 166.967,115.634C166.144,115.633 165.378,116.441 164.94,117.773C164.615,118.765 164.262,119.836 163.936,120.827C163.849,121.094 163.696,121.255 163.531,121.255C163.366,121.255 163.213,121.093 163.126,120.827L162.123,117.776C161.685,116.444 160.919,115.634 160.096,115.634C159.273,115.633 158.507,116.441 158.07,117.773C157.744,118.765 157.391,119.836 157.065,120.827C156.978,121.094 156.825,121.255 156.66,121.255C156.496,121.255 156.342,121.093 156.255,120.827L155.232,117.717C154.797,116.394 154.04,115.587 153.223,115.575C152.406,115.562 151.643,116.348 151.198,117.658C150.427,119.927 149.577,122.43 149.577,122.43C149.29,123.277 149.416,124.412 149.859,124.963C150.303,125.513 150.896,125.272 151.184,124.425Z" style="fill:rgb(240,104,45);"/>
</g>
<g transform="matrix(0.00711104,-1.04433,0.54619,0.004015,74.2351,284.529)">
<path d="M151.184,124.425C151.184,124.425 152.034,121.922 152.804,119.653C152.893,119.391 153.046,119.234 153.209,119.236C153.373,119.238 153.524,119.4 153.611,119.664L154.634,122.774C155.072,124.107 155.837,124.916 156.66,124.917C157.484,124.918 158.249,124.109 158.687,122.777C159.013,121.786 159.365,120.715 159.691,119.723C159.779,119.457 159.932,119.295 160.096,119.295C160.261,119.296 160.414,119.457 160.502,119.724L161.505,122.774C161.943,124.107 162.708,124.916 163.531,124.917C164.354,124.918 165.12,124.109 165.558,122.777C165.884,121.786 166.236,120.715 166.562,119.723C166.649,119.457 166.803,119.295 166.967,119.295C167.132,119.296 167.285,119.457 167.372,119.724L168.31,122.575C168.759,123.94 169.55,124.753 170.393,124.716C171.235,124.679 172.006,123.797 172.42,122.394L174.005,117.031C174.265,116.152 174.103,115.034 173.642,114.536C173.182,114.039 172.598,114.349 172.338,115.228L170.753,120.591C170.67,120.871 170.516,121.048 170.347,121.055C170.179,121.063 170.021,120.9 169.931,120.627L168.994,117.776C168.555,116.444 167.79,115.634 166.967,115.634C166.144,115.633 165.378,116.441 164.94,117.773C164.615,118.765 164.262,119.836 163.936,120.827C163.849,121.094 163.696,121.255 163.531,121.255C163.366,121.255 163.213,121.093 163.126,120.827L162.123,117.776C161.685,116.444 160.919,115.634 160.096,115.634C159.273,115.633 158.507,116.441 158.07,117.773C157.744,118.765 157.391,119.836 157.065,120.827C156.978,121.094 156.825,121.255 156.66,121.255C156.496,121.255 156.342,121.093 156.255,120.827L155.232,117.717C154.797,116.394 154.04,115.587 153.223,115.575C152.406,115.562 151.643,116.348 151.198,117.658C150.427,119.927 149.577,122.43 149.577,122.43C149.29,123.277 149.416,124.412 149.859,124.963C150.303,125.513 150.896,125.272 151.184,124.425Z" style="fill:rgb(240,104,45);"/>
</g>
</g>
</g>
</svg>