<?xml version="1.0" ?>
<!DOCTYPE svg  PUBLIC '-//W3C//DTD SVG 1.1//EN'  'http://www.w3.org/Graphics/SVG/1.1/DTD/svg11.dtd'>
<!-- Uploaded to: SVG Repo, www.svgrepo.com, Generator: SVG Repo Mixer Tools -->
<svg fill="#000000" width="800px" height="800px" viewBox="0 0 64 64" style="fill-rule:evenodd;clip-rule:evenodd;stroke-linejoin:round;stroke-miterlimit:2;" version="1.1" xml:space="preserve" xmlns="http://www.w3.org/2000/svg" xmlns:serif="http://www.serif.com/" xmlns:xlink="http://www.w3.org/1999/xlink">
<g transform="matrix(1,0,0,1,-192,-192)">
<g id="Icon">
<path d="M223.994,195.992C221.497,195.992 219.458,198.056 219.458,200.614C219.458,203.171 221.497,205.235 223.994,205.235C226.491,205.235 228.53,203.171 228.53,200.614C228.53,198.056 226.491,195.992 223.994,195.992Z" style="fill:rgb(240,104,45);"/>
<path d="M223.363,196.037C225.564,196.35 227.269,198.276 227.269,200.614C227.269,202.952 225.564,204.878 223.363,205.191C223.57,205.22 223.78,205.235 223.994,205.235C226.491,205.235 228.53,203.171 228.53,200.614C228.53,198.056 226.491,195.992 223.994,195.992C223.78,195.992 223.57,196.007 223.363,196.037Z" style="fill:rgb(239,92,29);"/>
<path d="M206.067,225.933C205.782,225.933 205.51,226.055 205.32,226.269C205.13,226.482 205.041,226.766 205.074,227.049L207.875,251.116C207.933,251.62 208.36,252 208.868,252L239.121,252C239.628,252 240.055,251.62 240.114,251.116L242.915,227.049C242.948,226.766 242.858,226.482 242.669,226.269C242.479,226.055 242.207,225.933 241.922,225.933L206.067,225.933Z" style="fill:rgb(240,104,45);"/>
<path d="M241.922,225.933L236.483,225.933C236.769,225.933 237.04,226.055 237.23,226.269C237.42,226.482 237.509,226.766 237.476,227.049L234.675,251.116C234.617,251.62 234.19,252 233.682,252L239.121,252C239.628,252 240.055,251.62 240.114,251.116L242.915,227.049C242.948,226.766 242.858,226.482 242.669,226.269C242.479,226.055 242.207,225.933 241.922,225.933Z" style="fill:rgb(239,92,29);"/>
<path d="M206.143,236.24L206.861,242.405L217.929,242.405C219.054,244.612 221.349,246.126 223.994,246.126C226.64,246.126 228.935,244.612 230.06,242.405C230.059,242.405 237.315,242.405 241.128,242.405L241.845,236.24L230.059,236.24C228.935,234.033 226.64,232.52 223.994,232.52C221.349,232.52 219.054,234.033 217.929,236.24C217.929,236.24 208.761,236.24 206.143,236.24Z" style="fill:rgb(245,240,229);"/>
<path d="M241.845,236.24L241.128,242.405L235.689,242.405L236.407,236.24L241.845,236.24Z" style="fill:rgb(234,222,199);"/>
<circle cx="223.994" cy="239.323" r="3.082" style="fill:rgb(240,104,45);"/>
<path d="M231.52,210.665C231.997,210.665 232.408,210.328 232.5,209.86C232.591,209.403 232.639,208.96 232.639,208.459L232.639,208.457C232.639,207.394 232.416,206.377 232.041,205.625C231.513,204.564 230.705,204.083 229.957,204.083C227.017,204.083 220.972,204.083 218.031,204.083C217.283,204.083 216.476,204.564 215.947,205.625C215.573,206.377 215.35,207.394 215.35,208.457L215.35,208.459C215.35,208.96 215.314,209.403 215.405,209.86C215.498,210.328 215.909,210.665 216.386,210.665L231.52,210.665Z" style="fill:rgb(255,252,92);"/>
<path d="M230.733,204.256C230.781,204.595 230.806,204.947 230.806,205.305L230.806,205.307C230.806,205.808 230.758,206.251 230.668,206.708C230.575,207.176 230.164,207.514 229.687,207.514L215.409,207.514C215.37,207.82 215.35,208.136 215.35,208.457L215.35,208.459C215.35,208.96 215.314,209.403 215.405,209.86C215.498,210.328 215.909,210.665 216.386,210.665L231.52,210.665C231.997,210.665 232.408,210.328 232.5,209.86C232.591,209.403 232.639,208.96 232.639,208.459L232.639,208.457C232.639,207.394 232.416,206.377 232.041,205.625C231.694,204.927 231.226,204.48 230.733,204.256Z" style="fill:rgb(254,250,34);"/>
<path d="M237.23,216.096C237.652,216.096 238.028,215.831 238.171,215.434C238.396,214.808 238.494,214.181 238.494,213.47C238.494,213.469 238.494,213.468 238.494,213.467C238.494,212.236 238.125,211.06 237.491,210.19C236.763,209.19 235.755,208.665 234.725,208.665C229.544,208.665 218.444,208.665 213.264,208.665C212.234,208.665 211.226,209.19 210.497,210.19C209.863,211.06 209.494,212.236 209.494,213.467C209.494,213.468 209.494,213.469 209.494,213.47C209.494,214.181 209.593,214.808 209.818,215.434C209.961,215.831 210.337,216.096 210.759,216.096L237.23,216.096Z" style="fill:rgb(255,252,92);"/>
<path d="M236.263,209.076C236.325,209.424 236.357,209.783 236.357,210.148C236.357,210.149 236.357,210.15 236.357,210.151C236.357,210.862 236.259,211.489 236.034,212.115C235.891,212.512 235.515,212.777 235.093,212.777L209.533,212.777C209.508,213.004 209.494,213.234 209.494,213.467C209.494,213.468 209.494,213.469 209.494,213.47C209.494,214.181 209.593,214.808 209.818,215.434C209.961,215.831 210.337,216.096 210.759,216.096L237.23,216.096C237.652,216.096 238.028,215.831 238.171,215.434C238.396,214.808 238.494,214.181 238.494,213.47C238.494,213.469 238.494,213.468 238.494,213.467C238.494,212.236 238.125,211.06 237.491,210.19C237.138,209.705 236.719,209.332 236.263,209.076Z" style="fill:rgb(254,250,34);"/>
<path d="M242.382,221.955C242.758,221.134 242.922,220.597 242.922,219.639C242.922,219.639 242.922,219.638 242.922,219.638C242.922,218.195 242.444,216.814 241.61,215.794C240.712,214.694 239.484,214.096 238.214,214.096C231.331,214.096 216.657,214.096 209.775,214.096C208.505,214.096 207.276,214.694 206.378,215.794C205.545,216.814 205.067,218.195 205.067,219.638C205.067,219.638 205.067,219.639 205.067,219.639C205.067,220.599 205.11,221.133 205.488,221.955C205.55,222.091 205.684,222.352 206.075,222.486C206.114,222.499 206.299,222.546 206.621,222.558C208.145,222.616 216.04,222.646 223.935,222.646C231.829,222.646 239.724,222.616 241.248,222.558C241.57,222.546 241.755,222.499 241.794,222.486C242.185,222.352 242.319,222.091 242.382,221.955Z" style="fill:rgb(255,252,92);"/>
<path d="M240.539,214.815C240.646,215.282 240.702,215.768 240.702,216.261C240.702,216.261 240.702,216.262 240.702,216.262C240.702,217.22 240.538,217.757 240.162,218.578C240.1,218.714 239.965,218.975 239.574,219.109C239.535,219.122 239.351,219.169 239.028,219.181C237.504,219.239 229.61,219.269 221.715,219.269C214.646,219.269 207.577,219.245 205.082,219.198C205.072,219.344 205.067,219.491 205.067,219.638C205.067,219.638 205.067,219.639 205.067,219.639C205.067,220.599 205.11,221.133 205.488,221.955C205.55,222.091 205.684,222.352 206.075,222.486C206.114,222.499 206.299,222.546 206.621,222.558C208.145,222.616 216.04,222.646 223.935,222.646C231.829,222.646 239.724,222.616 241.248,222.558C241.57,222.546 241.755,222.499 241.794,222.486C242.185,222.352 242.319,222.091 242.382,221.955C242.758,221.134 242.922,220.597 242.922,219.639C242.922,219.639 242.922,219.638 242.922,219.638C242.922,218.195 242.444,216.814 241.61,215.794C241.291,215.402 240.93,215.075 240.539,214.815Z" style="fill:rgb(254,250,34);"/>
<path d="M245.244,224.234C245.244,223.254 244.855,222.314 244.162,221.621C243.469,220.928 242.529,220.538 241.548,220.538C234.187,220.538 213.802,220.538 206.44,220.538C205.46,220.538 204.52,220.928 203.827,221.621C203.134,222.314 202.744,223.254 202.744,224.234C202.744,224.235 202.744,224.236 202.744,224.237C202.744,225.218 203.134,226.158 203.827,226.851C204.52,227.544 205.46,227.934 206.44,227.933C213.802,227.933 234.187,227.933 241.548,227.933C242.529,227.934 243.469,227.544 244.162,226.851C244.855,226.158 245.244,225.218 245.244,224.237L245.244,224.234Z" style="fill:rgb(255,252,92);"/>
<path d="M242.315,220.619C242.738,221.232 242.97,221.963 242.97,222.719L242.97,222.722C242.97,223.702 242.58,224.642 241.887,225.336C241.194,226.029 240.254,226.418 239.274,226.418C231.912,226.418 211.527,226.418 204.166,226.418C203.906,226.418 203.649,226.391 203.399,226.338C203.525,226.52 203.668,226.692 203.827,226.851C204.52,227.544 205.46,227.934 206.44,227.933C213.802,227.933 234.187,227.933 241.548,227.933C242.529,227.934 243.469,227.544 244.162,226.851C244.855,226.158 245.244,225.218 245.244,224.237L245.244,224.234C245.244,223.254 244.855,222.314 244.162,221.621C243.652,221.111 243.009,220.766 242.315,220.619Z" style="fill:rgb(254,250,34);"/>
</g>
</g>
</svg>