<?xml version="1.0" ?>
<!-- Uploaded to: SVG Repo, www.svgrepo.com, Generator: SVG Repo Mixer Tools -->
<svg width="800px" height="800px" viewBox="0 0 128 128" version="1.1" xml:space="preserve" xmlns="http://www.w3.org/2000/svg" xmlns:xlink="http://www.w3.org/1999/xlink">
<style type="text/css">
	.st0{fill:#69A401;}
	.st1{fill:#EFE691;}
	.st2{fill:#B20000;}
	.st3{fill:#DF1801;}
	.st4{fill:#F40603;}
	.st5{fill:#FFEEEE;}
	.st6{fill:#847B3C;}
	.st7{fill:#CEB600;}
	.st8{fill:#F8CD02;}
	.st9{fill:#F7C800;}
	.st10{fill:#F6E8B9;}
	.st11{fill:#F6E9CA;}
	.st12{fill:#CF8A11;}
	.st13{fill:#286F0D;}
	.st14{fill:#63271D;}
	.st15{fill:#EB8102;}
	.st16{fill:#E37303;}
	.st17{fill:#D97102;}
	.st18{fill:#BF6302;}
	.st19{fill:#EA9735;}
	.st20{fill:#3E1A01;}
	.st21{fill:#C96A0A;}
	.st22{fill:#CE2335;}
	.st23{fill:#C0242D;}
	.st24{fill:#BA1A23;}
	.st25{fill:#F9DCC7;}
	.st26{fill:#DBE2CE;}
	.st27{fill:#7D4B12;}
	.st28{fill:#75480C;}
	.st29{fill:#66410C;}
	.st30{fill:#88550D;}
	.st31{fill:#FFFEE9;}
	.st32{fill:#9B9F1A;}
	.st33{fill:#F6E177;}
	.st34{fill:#443A00;}
	.st35{fill:#305209;}
	.st36{fill:#7F7C04;}
	.st37{fill:#BAB424;}
	.st38{fill:#F7CF43;}
	.st39{fill:#DE940E;}
	.st40{fill:#5F570A;}
	.st41{fill:#175424;}
	.st42{fill:#215B25;}
	.st43{fill:#1B5020;}
	.st44{fill:#C0F9C0;}
	.st45{fill:#F3DA78;}
	.st46{fill:#BC441C;}
	.st47{fill:#148E2E;}
	.st48{fill:#283767;}
	.st49{fill:#425285;}
	.st50{fill:#CFDFFF;}
	.st51{fill:#1F2C55;}
	.st52{fill:#776220;}
	.st53{fill:#90236B;}
	.st54{fill:#5D1A47;}
	.st55{fill:#99499A;}
	.st56{fill:#FCCAFA;}
	.st57{fill:#917C31;}
	.st58{fill:#F4C435;}
	.st59{fill:#F1BC02;}
	.st60{fill:#F0B102;}
	.st61{fill:#F1F7BA;}
	.st62{fill:#E3DCB9;}
	.st63{fill:#BD6800;}
	.st64{fill:#E19704;}
	.st65{fill:#B2CA2B;}
	.st66{fill:#AFC20F;}
	.st67{fill:#B9CB00;}
	.st68{fill:#E5F392;}
	.st69{fill:#F78202;}
	.st70{fill:#F79613;}
	.st71{fill:#331F07;}
	.st72{fill:#402B16;}
	.st73{fill:#669404;}
	.st74{fill:#F58E13;}
	.st75{fill:#D87117;}
	.st76{fill:#216604;}
	.st77{fill:#286D08;}
	.st78{fill:#C8C625;}
	.st79{fill:#2C441F;}
	.st80{fill:#F1E6BF;}
	.st81{fill:#F2BE2E;}
	.st82{fill:#BF8F33;}
	.st83{fill:#568804;}
	.st84{fill:#669614;}
	.st85{fill:#688E0C;}
	.st86{fill:#4C7005;}
	.st87{fill:#A0CA49;}
	.st88{fill:#99BD70;}
	.st89{fill:#78AA25;}
	.st90{fill:#4B7C23;}
	.st91{fill:#EADBC8;}
	.st92{fill:#F0D5B0;}
	.st93{fill:#DF2B2B;}
	.st94{fill:#D1262C;}
	.st95{fill:#B7252C;}
	.st96{fill:#46670C;}
	.st97{fill:#F49D5B;}
	.st98{fill:#F57A55;}
	.st99{fill:#F1C3A7;}
	.st100{fill:#CC0917;}
	.st101{fill:#DC1035;}
	.st102{fill:#9BAC0F;}
	.st103{fill:#667A1D;}
	.st104{fill:#7A9D18;}
	.st105{fill:#F6F7E6;}
	.st106{fill:#F0194D;}
	.st107{fill:#362420;}
	.st108{fill:#530618;}
	.st109{fill:#44041A;}
	.st110{fill:#490419;}
	.st111{fill:#F8A459;}
	.st112{fill:#871B22;}
	.st113{fill:#600613;}
	.st114{fill:#F8C790;}
	.st115{fill:#447832;}
	.st116{fill:#7C473D;}
	.st117{fill:#441432;}
	.st118{fill:#51163F;}
	.st119{fill:#5B1A41;}
	.st120{fill:#FCEBF9;}
	.st121{fill:#ECE5CE;}
	.st122{fill:#BC3E2C;}
	.st123{fill:#A60F26;}
	.st124{fill:#C61632;}
	.st125{fill:#BD1331;}
	.st126{fill:#F8B772;}
	.st127{fill:#F7DDAC;}
	.st128{fill:#850E11;}
	.st129{fill:#191200;}
	.st130{fill:#553D2D;}
	.st131{fill:#F9E2D2;}
	.st132{fill:#CA8937;}
	.st133{fill:#462D16;}
	.st134{fill:#6D8916;}
	.st135{fill:#96B54E;}
	.st136{fill:#E3E2DE;}
	.st137{fill:#261811;}
	.st138{fill:#525C11;}
	.st139{fill:#14581E;}
	.st140{fill:#3D7712;}
	.st141{fill:#9BC148;}
	.st142{fill:#E22434;}
	.st143{fill:#C6DD9E;}
	.st144{fill:#F89A07;}
	.st145{fill:#F7A410;}
	.st146{fill:#F8AB19;}
	.st147{fill:#F7B81C;}
	.st148{fill:#E5870A;}
	.st149{fill:#97A304;}
	.st150{fill:#A88C5C;}
	.st151{fill:#ADC21E;}
	.st152{fill:#A3BA0B;}
	.st153{fill:#8D9E08;}
	.st154{fill:#E0DAB9;}
	.st155{fill:#684219;}
	.st156{fill:#777F05;}
	.st157{fill:#F2E9C4;}
	.st158{fill:#CBB465;}
	.st159{fill:#FFF5CA;}
	.st160{fill:#E52828;}
	.st161{fill:#F87302;}
	.st162{fill:#FF7B22;}
	.st163{fill:#FC7F10;}
	.st164{fill:#F8A200;}
	.st165{fill:#F8DC91;}
	.st166{fill:#FFFFFF;}
	.st167{fill:#F5D7D5;}
	.st168{fill:#EDA07A;}
	.st169{fill:#FCBEBE;}
	.st170{fill:#EAD991;}
	.st171{fill:#582612;}
</style>
<g id="_x33_0_Mulberry"/>
<g id="_x32_9_Star_Fruit"/>
<g id="_x32_8_Apricot"/>
<g id="_x32_7_Litchi"/>
<g id="_x32_6_Kiwi"/>
<g id="_x32_5_Jackfruit"/>
<g id="_x32_4_Avacado"/>
<g id="_x32_3_Blueberry"/>
<g id="_x32_2_Purple_Grapes"/>
<g id="_x32_1_Melon"/>
<g id="_x32_0_Green_Grapes"/>
<g id="_x31_9_Papaya"/>
<g id="_x31_8_Pineapple"/>
<g id="_x31_7_Banana"/>
<g id="_x31_6_Tender_Coconut"/>
<g id="_x31_5_Strawberry"/>
<g id="_x31_4_Dragon_Fruit"/>
<g id="_x31_3_Plum"/>
<g id="_x31_2_Fig"/>
<g id="_x31_1_Peach"/>
<g id="_x31_0_Cherry"/>
<g id="_x30_9_Sapota"/>
<g id="_x30_8_Custard_Apple"/>
<g id="_x30_7_Watermelon"/>
<g id="_x30_6_Mango">
<g id="XMLID_370_">
<g id="XMLID_372_">
<g id="XMLID_375_">
<path class="st13" d="M38.761,11.376c-3.435,5.312-3.858,11.521-1.742,16.924      c6.128-0.801,11.83-4.064,15.265-9.376C55.719,13.612,56.142,7.403,54.026,2C47.898,2.801,42.196,6.064,38.761,11.376z" id="XMLID_389_"/>
<path class="st14" d="M37.479,38.69c-1.104,0-2-0.896-2-2v-4.45c0-4.953-2.478-9.525-6.629-12.23      c-0.925-0.603-1.187-1.842-0.583-2.768c0.602-0.925,1.841-1.187,2.768-0.583c5.288,3.446,8.444,9.271,8.444,15.581v4.45      C39.479,37.794,38.584,38.69,37.479,38.69z"/>
</g>
<path class="st144" d="M10.166,116.716c0,0,7.325-19.492-2.634-32.543c-4.448-5.829-6.673-13.203-4.947-20.303     C9.193,36.69,37.472,36.69,37.472,36.69c1.413,0,2.875,0.102,4.37,0.299c28.352,3.729,41.918,36.156,25.953,59.629     C58.682,110.017,41.724,121.233,10.166,116.716z" id="XMLID_390_"/>
<path class="st145" d="M22.566,116.716c0,0,7.325-19.492-2.634-32.543c-4.448-5.829-6.673-13.203-4.947-20.303     c4.702-19.34,20.369-24.915,29.02-26.524c-0.713-0.134-1.43-0.261-2.163-0.358c-1.495-0.197-2.958-0.299-4.37-0.299     c0,0-28.278,0-34.887,27.181c-1.726,7.101,0.499,14.474,4.947,20.303c9.959,13.051,2.634,32.543,2.634,32.543     c7.283,1.042,13.779,1.238,19.589,0.771C27.444,117.321,25.056,117.073,22.566,116.716z" id="XMLID_36_"/>
<path class="st146" d="M16.366,116.716c0,0,7.325-19.492-2.634-32.543c-4.448-5.829-6.673-13.203-4.947-20.303     c5.33-21.924,24.751-26.162,32.067-26.982c-1.149-0.12-2.283-0.199-3.38-0.199c0,0-28.278,0-34.887,27.181     c-1.726,7.101,0.499,14.474,4.947,20.303c9.959,13.051,2.634,32.543,2.634,32.543c6.072,0.869,11.599,1.151,16.639,0.951     C23.513,117.547,20.043,117.243,16.366,116.716z" id="XMLID_34_"/>
<path class="st25" d="M19.128,81.83c-0.73,0-1.434-0.401-1.786-1.097c-2.831-5.593-3.655-11.573-2.385-17.296     c0.778-3.504,2.019-6.777,3.688-9.73c0.543-0.961,1.763-1.302,2.725-0.757c0.962,0.543,1.301,1.764,0.757,2.725     c-1.474,2.609-2.572,5.512-3.265,8.63c-1.068,4.809-0.359,9.865,2.049,14.622c0.499,0.986,0.104,2.189-0.881,2.688     C19.74,81.761,19.432,81.83,19.128,81.83z"/>
<path class="st25" d="M24.07,88.73c-0.52,0-1.04-0.22-1.41-0.59c-0.37-0.37-0.59-0.89-0.59-1.41c0-0.53,0.22-1.05,0.59-1.42     c0.74-0.74,2.09-0.75,2.83,0c0.37,0.37,0.58,0.89,0.58,1.42c0,0.52-0.21,1.04-0.58,1.41c-0.1,0.09-0.2,0.17-0.31,0.25     c-0.11,0.07-0.22,0.13-0.34,0.18s-0.25,0.09-0.38,0.12C24.33,88.71,24.2,88.73,24.07,88.73z"/>
</g>
<g id="XMLID_27_">
<path class="st147" d="M45.921,99.133c4.282,8.673,10.405,14.928,17.02,19.427     c23.066,15.689,54.017,5.313,63.059-19.427H45.921z" id="XMLID_371_"/>
<path class="st148" d="M62.941,112.361c-4.919-3.346-9.563-7.668-13.383-13.227h-3.637     c4.282,8.673,10.405,14.928,17.02,19.427c23.066,15.689,54.017,5.313,63.059-19.427h-2.894     C111.548,119.296,83.971,126.665,62.941,112.361z" id="XMLID_55_"/>
</g>
</g>
</g>
<g id="_x30_5_Pear"/>
<g id="_x30_4_Guava"/>
<g id="_x30_3_Pomegranate"/>
<g id="_x30_2_Orange"/>
<g id="_x30_1_Apple"/>
</svg>