<?xml version="1.0" ?>
<!-- Uploaded to: SVG Repo, www.svgrepo.com, Generator: SVG Repo Mixer Tools -->
<svg width="800px" height="800px" viewBox="0 0 128 128" version="1.1" xml:space="preserve" xmlns="http://www.w3.org/2000/svg" xmlns:xlink="http://www.w3.org/1999/xlink">
<style type="text/css">
	.st0{fill:#69A401;}
	.st1{fill:#EFE691;}
	.st2{fill:#B20000;}
	.st3{fill:#DF1801;}
	.st4{fill:#F40603;}
	.st5{fill:#FFEEEE;}
	.st6{fill:#847B3C;}
	.st7{fill:#CEB600;}
	.st8{fill:#F8CD02;}
	.st9{fill:#F7C800;}
	.st10{fill:#F6E8B9;}
	.st11{fill:#F6E9CA;}
	.st12{fill:#CF8A11;}
	.st13{fill:#286F0D;}
	.st14{fill:#63271D;}
	.st15{fill:#EB8102;}
	.st16{fill:#E37303;}
	.st17{fill:#D97102;}
	.st18{fill:#BF6302;}
	.st19{fill:#EA9735;}
	.st20{fill:#3E1A01;}
	.st21{fill:#C96A0A;}
	.st22{fill:#CE2335;}
	.st23{fill:#C0242D;}
	.st24{fill:#BA1A23;}
	.st25{fill:#F9DCC7;}
	.st26{fill:#DBE2CE;}
	.st27{fill:#7D4B12;}
	.st28{fill:#75480C;}
	.st29{fill:#66410C;}
	.st30{fill:#88550D;}
	.st31{fill:#FFFEE9;}
	.st32{fill:#9B9F1A;}
	.st33{fill:#F6E177;}
	.st34{fill:#443A00;}
	.st35{fill:#305209;}
	.st36{fill:#7F7C04;}
	.st37{fill:#BAB424;}
	.st38{fill:#F7CF43;}
	.st39{fill:#DE940E;}
	.st40{fill:#5F570A;}
	.st41{fill:#175424;}
	.st42{fill:#215B25;}
	.st43{fill:#1B5020;}
	.st44{fill:#C0F9C0;}
	.st45{fill:#F3DA78;}
	.st46{fill:#BC441C;}
	.st47{fill:#148E2E;}
	.st48{fill:#283767;}
	.st49{fill:#425285;}
	.st50{fill:#CFDFFF;}
	.st51{fill:#1F2C55;}
	.st52{fill:#776220;}
	.st53{fill:#90236B;}
	.st54{fill:#5D1A47;}
	.st55{fill:#99499A;}
	.st56{fill:#FCCAFA;}
	.st57{fill:#917C31;}
	.st58{fill:#F4C435;}
	.st59{fill:#F1BC02;}
	.st60{fill:#F0B102;}
	.st61{fill:#F1F7BA;}
	.st62{fill:#E3DCB9;}
	.st63{fill:#BD6800;}
	.st64{fill:#E19704;}
	.st65{fill:#B2CA2B;}
	.st66{fill:#AFC20F;}
	.st67{fill:#B9CB00;}
	.st68{fill:#E5F392;}
	.st69{fill:#F78202;}
	.st70{fill:#F79613;}
	.st71{fill:#331F07;}
	.st72{fill:#402B16;}
	.st73{fill:#669404;}
	.st74{fill:#F58E13;}
	.st75{fill:#D87117;}
	.st76{fill:#216604;}
	.st77{fill:#286D08;}
	.st78{fill:#C8C625;}
	.st79{fill:#2C441F;}
	.st80{fill:#F1E6BF;}
	.st81{fill:#F2BE2E;}
	.st82{fill:#BF8F33;}
	.st83{fill:#568804;}
	.st84{fill:#669614;}
	.st85{fill:#688E0C;}
	.st86{fill:#4C7005;}
	.st87{fill:#A0CA49;}
	.st88{fill:#99BD70;}
	.st89{fill:#78AA25;}
	.st90{fill:#4B7C23;}
	.st91{fill:#EADBC8;}
	.st92{fill:#F0D5B0;}
	.st93{fill:#DF2B2B;}
	.st94{fill:#D1262C;}
	.st95{fill:#B7252C;}
	.st96{fill:#46670C;}
	.st97{fill:#F49D5B;}
	.st98{fill:#F57A55;}
	.st99{fill:#F1C3A7;}
	.st100{fill:#CC0917;}
	.st101{fill:#DC1035;}
	.st102{fill:#9BAC0F;}
	.st103{fill:#667A1D;}
	.st104{fill:#7A9D18;}
	.st105{fill:#F6F7E6;}
	.st106{fill:#F0194D;}
	.st107{fill:#362420;}
	.st108{fill:#530618;}
	.st109{fill:#44041A;}
	.st110{fill:#490419;}
	.st111{fill:#F8A459;}
	.st112{fill:#871B22;}
	.st113{fill:#600613;}
	.st114{fill:#F8C790;}
	.st115{fill:#447832;}
	.st116{fill:#7C473D;}
	.st117{fill:#441432;}
	.st118{fill:#51163F;}
	.st119{fill:#5B1A41;}
	.st120{fill:#FCEBF9;}
	.st121{fill:#ECE5CE;}
	.st122{fill:#BC3E2C;}
	.st123{fill:#A60F26;}
	.st124{fill:#C61632;}
	.st125{fill:#BD1331;}
	.st126{fill:#F8B772;}
	.st127{fill:#F7DDAC;}
	.st128{fill:#850E11;}
	.st129{fill:#191200;}
	.st130{fill:#553D2D;}
	.st131{fill:#F9E2D2;}
	.st132{fill:#CA8937;}
	.st133{fill:#462D16;}
	.st134{fill:#6D8916;}
	.st135{fill:#96B54E;}
	.st136{fill:#E3E2DE;}
	.st137{fill:#261811;}
	.st138{fill:#525C11;}
	.st139{fill:#14581E;}
	.st140{fill:#3D7712;}
	.st141{fill:#9BC148;}
	.st142{fill:#E22434;}
	.st143{fill:#C6DD9E;}
	.st144{fill:#F89A07;}
	.st145{fill:#F7A410;}
	.st146{fill:#F8AB19;}
	.st147{fill:#F7B81C;}
	.st148{fill:#E5870A;}
	.st149{fill:#97A304;}
	.st150{fill:#A88C5C;}
	.st151{fill:#ADC21E;}
	.st152{fill:#A3BA0B;}
	.st153{fill:#8D9E08;}
	.st154{fill:#E0DAB9;}
	.st155{fill:#684219;}
	.st156{fill:#777F05;}
	.st157{fill:#F2E9C4;}
	.st158{fill:#CBB465;}
	.st159{fill:#FFF5CA;}
	.st160{fill:#E52828;}
	.st161{fill:#F87302;}
	.st162{fill:#FF7B22;}
	.st163{fill:#FC7F10;}
	.st164{fill:#F8A200;}
	.st165{fill:#F8DC91;}
	.st166{fill:#FFFFFF;}
	.st167{fill:#F5D7D5;}
	.st168{fill:#EDA07A;}
	.st169{fill:#FCBEBE;}
	.st170{fill:#EAD991;}
	.st171{fill:#582612;}
</style>
<g id="_x33_0_Mulberry"/>
<g id="_x32_9_Star_Fruit"/>
<g id="_x32_8_Apricot"/>
<g id="_x32_7_Litchi"/>
<g id="_x32_6_Kiwi"/>
<g id="_x32_5_Jackfruit"/>
<g id="_x32_4_Avacado"/>
<g id="_x32_3_Blueberry"/>
<g id="_x32_2_Purple_Grapes"/>
<g id="_x32_1_Melon"/>
<g id="_x32_0_Green_Grapes"/>
<g id="_x31_9_Papaya">
<g id="XMLID_998_">
<g id="XMLID_1022_">
<g id="XMLID_1023_">
<path class="st35" d="M33.358,8.97c-2.518,3.949-2.828,8.565-1.277,12.582c4.491-0.596,8.67-3.021,11.187-6.97      S46.096,6.017,44.546,2C40.055,2.596,35.876,5.021,33.358,8.97z" id="XMLID_1025_"/>
<path class="st14" d="M32.42,30.651c-1.104,0-2-0.896-2-2l-0.001-4.169c0-3.514-1.729-6.755-4.626-8.671      c-0.922-0.608-1.175-1.85-0.565-2.771c0.607-0.922,1.851-1.175,2.771-0.565c4.021,2.657,6.421,7.146,6.421,12.007l0.001,4.169      C34.42,29.756,33.525,30.651,32.42,30.651L32.42,30.651z"/>
</g>
<path class="st58" d="M62.82,75.281c-0.007-7.564-3.331-16.429-9.914-21.413     c-3.949-2.99-8.08-10.911-9.386-19.274c-0.965-6.182-7.299-6.46-11.1-5.943c-3.8-0.517-9.622-0.135-11.1,5.943     c-1.592,6.546-5.621,16.05-9.386,19.274c-6.959,5.96-9.666,13.854-9.914,21.413c-0.735,22.401,18.236,36.465,26.718,41.616     c2.357,1.431,5.284,1.484,7.684,0.13C44.954,112.213,62.843,100.748,62.82,75.281z" id="XMLID_1026_"/>
<path class="st59" d="M13.387,75.281c0.248-7.56,2.955-15.454,9.914-21.413     c3.765-3.224,7.794-12.728,9.386-19.274c0.84-3.456,3.086-5.067,5.565-5.722c-1.985-0.52-4.155-0.449-5.832-0.221     c-3.8-0.517-9.622-0.135-11.1,5.943c-1.592,6.546-5.621,16.05-9.386,19.274c-6.959,5.96-9.666,13.854-9.914,21.413     c-0.735,22.401,18.236,36.465,26.718,41.616c2.357,1.431,5.283,1.484,7.684,0.13c0.625-0.353,1.305-0.746,2.019-1.172     C29.382,109.999,12.697,96.316,13.387,75.281z" id="XMLID_871_"/>
<path class="st60" d="M34.939,116.897c-8.482-5.151-27.453-19.215-26.718-41.616     c0.248-7.56,2.955-15.454,9.914-21.413c3.765-3.224,7.794-12.728,9.386-19.274c1.137-4.673,4.84-5.974,8.219-6.093     c-1.185-0.061-2.337,0.017-3.319,0.15c-3.8-0.517-9.622-0.135-11.1,5.943c-1.592,6.546-5.621,16.05-9.386,19.274     c-6.959,5.96-9.666,13.854-9.914,21.413c-0.735,22.401,18.236,36.465,26.718,41.616c2.152,1.307,4.774,1.451,7.042,0.437     C35.494,117.206,35.212,117.063,34.939,116.897z" id="XMLID_841_"/>
</g>
<g id="XMLID_999_">
<path class="st69" d="M83.077,126c-7.599-0.007-15.466-3.316-20.474-9.869     c-3.004-3.931-11.999-8.044-20.4-9.343c-6.21-0.961-6.489-7.266-5.97-11.049c-0.52-3.783-0.135-9.578,5.97-11.049     c6.576-1.585,17.161-5.596,20.4-9.343c5.987-6.928,12.879-9.622,20.474-9.869c22.504-0.732,36.632,18.153,41.807,26.596     c1.438,2.346,1.491,5.259,0.13,7.649C120.179,108.216,108.661,126.023,83.077,126z" id="XMLID_1021_"/>
<path class="st70" d="M83.584,120.012c-6.022-0.006-11.658-2.65-15.073-7.074     c-5.993-7.761-19.015-13.21-29.776-15.429c0.005-0.034,0.013-3.434,0.013-3.434c-0.013-0.097-0.024-0.19-0.034-0.28     c5.883-1.604,22.324-6.658,29.325-14.676c4.498-5.151,9.264-7.441,15.941-7.654c0.381-0.013,0.764-0.019,1.141-0.019     c19.106,0,32.237,16.164,37.83,24.687c-6.451,10.712-17.5,23.879-39.318,23.879H83.584z" id="XMLID_1020_"/>
<g id="XMLID_1387_">
<ellipse class="st71" cx="60.877" cy="95.17" id="XMLID_1000_" rx="4.458" ry="4.746"/>
<ellipse class="st71" cx="65.336" cy="101.439" id="XMLID_1283_" rx="4.458" ry="4.746"/>
<ellipse class="st72" cx="65.336" cy="91.947" id="XMLID_1287_" rx="4.458" ry="4.746"/>
<ellipse class="st72" cx="74.252" cy="99.916" id="XMLID_1291_" rx="4.458" ry="4.746"/>
<ellipse class="st71" cx="69.794" cy="96.693" id="XMLID_1295_" rx="4.458" ry="4.746"/>
<ellipse class="st72" cx="69.794" cy="104.662" id="XMLID_1504_" rx="4.458" ry="4.746"/>
<ellipse class="st72" cx="74.252" cy="90.424" id="XMLID_1511_" rx="4.458" ry="4.746"/>
<ellipse class="st71" cx="69.794" cy="87.2" id="XMLID_1514_" rx="4.458" ry="4.746"/>
<ellipse class="st71" cx="91.383" cy="112.248" id="XMLID_1517_" rx="4.458" ry="4.746"/>
<ellipse class="st71" cx="78.711" cy="95.17" id="XMLID_1520_" rx="4.458" ry="4.746"/>
<ellipse class="st72" cx="78.711" cy="104.662" id="XMLID_1523_" rx="4.458" ry="4.746"/>
<ellipse class="st72" cx="78.711" cy="85.677" id="XMLID_1305_" rx="4.458" ry="4.746"/>
<ellipse class="st71" cx="98.527" cy="109.408" id="XMLID_1308_" rx="4.458" ry="4.746"/>
<ellipse class="st71" cx="76.374" cy="109.408" id="XMLID_1542_" rx="4.458" ry="4.746"/>
<ellipse class="st71" cx="83.169" cy="90.424" id="XMLID_1546_" rx="4.458" ry="4.746"/>
<ellipse class="st71" cx="83.169" cy="99.916" id="XMLID_1553_" rx="4.458" ry="4.746"/>
<ellipse class="st71" cx="82.466" cy="83.324" id="XMLID_1556_" rx="4.458" ry="4.746"/>
<ellipse class="st72" cx="86.924" cy="96.116" id="XMLID_1559_" rx="4.458" ry="4.746"/>
<ellipse class="st72" cx="86.924" cy="106.185" id="XMLID_1345_" rx="4.458" ry="4.746"/>
<ellipse class="st72" cx="91.383" cy="100.862" id="XMLID_1348_" rx="4.458" ry="4.746"/>
<ellipse class="st71" cx="91.383" cy="94.95" id="XMLID_1351_" rx="4.458" ry="4.746"/>
<ellipse class="st72" cx="87.628" cy="87.2" id="XMLID_1354_" rx="4.458" ry="4.746"/>
<ellipse class="st71" cx="94.069" cy="89.188" id="XMLID_1298_" rx="4.458" ry="4.746"/>
<ellipse class="st71" cx="95.841" cy="95.17" id="XMLID_1347_" rx="4.458" ry="4.746"/>
<ellipse class="st71" cx="94.069" cy="104.662" id="XMLID_1355_" rx="4.458" ry="4.746"/>
<ellipse class="st71" cx="91.383" cy="82.454" id="XMLID_1381_" rx="4.458" ry="4.746"/>
<ellipse class="st72" cx="98.527" cy="84.442" id="XMLID_1386_" rx="4.458" ry="4.746"/>
<ellipse class="st71" cx="100.299" cy="91.37" id="XMLID_1390_" rx="4.458" ry="4.746"/>
<ellipse class="st72" cx="98.527" cy="98.12" id="XMLID_1393_" rx="4.458" ry="4.746"/>
<ellipse class="st72" cx="98.527" cy="103.984" id="XMLID_1396_" rx="4.458" ry="4.746"/>
<ellipse class="st71" cx="84.178" cy="110.481" id="XMLID_1399_" rx="4.458" ry="4.746"/>
<ellipse class="st72" cx="104.758" cy="88.121" id="XMLID_1412_" rx="4.458" ry="4.746"/>
<ellipse class="st71" cx="104.758" cy="96.693" id="XMLID_1415_" rx="4.458" ry="4.746"/>
<ellipse class="st71" cx="104.758" cy="104.662" id="XMLID_1425_" rx="4.458" ry="4.746"/>
<ellipse class="st72" cx="109.216" cy="99.916" id="XMLID_1441_" rx="4.458" ry="4.746"/>
<ellipse class="st71" cx="109.216" cy="93.112" id="XMLID_1561_" rx="4.458" ry="4.746"/>
</g>
<path class="st73" d="M125.015,97.657c-4.835,8.493-16.353,26.3-41.937,26.277     c-7.599-0.007-15.466-3.316-20.474-9.869c-3.004-3.931-11.999-8.044-20.4-9.343c-4.528-0.7-5.897-4.241-6.108-7.575     c-0.235,3.768,0.618,8.792,6.108,9.642c8.401,1.299,17.396,5.412,20.4,9.343c5.008,6.553,12.875,9.862,20.474,9.869     c25.584,0.023,37.102-17.784,41.937-26.277c0.839-1.474,1.137-3.146,0.907-4.762C125.794,95.893,125.498,96.808,125.015,97.657z" id="XMLID_1349_"/>
</g>
</g>
</g>
<g id="_x31_8_Pineapple"/>
<g id="_x31_7_Banana"/>
<g id="_x31_6_Tender_Coconut"/>
<g id="_x31_5_Strawberry"/>
<g id="_x31_4_Dragon_Fruit"/>
<g id="_x31_3_Plum"/>
<g id="_x31_2_Fig"/>
<g id="_x31_1_Peach"/>
<g id="_x31_0_Cherry"/>
<g id="_x30_9_Sapota"/>
<g id="_x30_8_Custard_Apple"/>
<g id="_x30_7_Watermelon"/>
<g id="_x30_6_Mango"/>
<g id="_x30_5_Pear"/>
<g id="_x30_4_Guava"/>
<g id="_x30_3_Pomegranate"/>
<g id="_x30_2_Orange"/>
<g id="_x30_1_Apple"/>
</svg>