<?xml version="1.0" ?>
<!-- Uploaded to: SVG Repo, www.svgrepo.com, Generator: SVG Repo Mixer Tools -->
<svg width="800px" height="800px" viewBox="0 0 128 128" version="1.1" xml:space="preserve" xmlns="http://www.w3.org/2000/svg" xmlns:xlink="http://www.w3.org/1999/xlink">
<style type="text/css">
	.st0{fill:#69A401;}
	.st1{fill:#EFE691;}
	.st2{fill:#B20000;}
	.st3{fill:#DF1801;}
	.st4{fill:#F40603;}
	.st5{fill:#FFEEEE;}
	.st6{fill:#847B3C;}
	.st7{fill:#CEB600;}
	.st8{fill:#F8CD02;}
	.st9{fill:#F7C800;}
	.st10{fill:#F6E8B9;}
	.st11{fill:#F6E9CA;}
	.st12{fill:#CF8A11;}
	.st13{fill:#286F0D;}
	.st14{fill:#63271D;}
	.st15{fill:#EB8102;}
	.st16{fill:#E37303;}
	.st17{fill:#D97102;}
	.st18{fill:#BF6302;}
	.st19{fill:#EA9735;}
	.st20{fill:#3E1A01;}
	.st21{fill:#C96A0A;}
	.st22{fill:#CE2335;}
	.st23{fill:#C0242D;}
	.st24{fill:#BA1A23;}
	.st25{fill:#F9DCC7;}
	.st26{fill:#DBE2CE;}
	.st27{fill:#7D4B12;}
	.st28{fill:#75480C;}
	.st29{fill:#66410C;}
	.st30{fill:#88550D;}
	.st31{fill:#FFFEE9;}
	.st32{fill:#9B9F1A;}
	.st33{fill:#F6E177;}
	.st34{fill:#443A00;}
	.st35{fill:#305209;}
	.st36{fill:#7F7C04;}
	.st37{fill:#BAB424;}
	.st38{fill:#F7CF43;}
	.st39{fill:#DE940E;}
	.st40{fill:#5F570A;}
	.st41{fill:#175424;}
	.st42{fill:#215B25;}
	.st43{fill:#1B5020;}
	.st44{fill:#C0F9C0;}
	.st45{fill:#F3DA78;}
	.st46{fill:#BC441C;}
	.st47{fill:#148E2E;}
	.st48{fill:#283767;}
	.st49{fill:#425285;}
	.st50{fill:#CFDFFF;}
	.st51{fill:#1F2C55;}
	.st52{fill:#776220;}
	.st53{fill:#90236B;}
	.st54{fill:#5D1A47;}
	.st55{fill:#99499A;}
	.st56{fill:#FCCAFA;}
	.st57{fill:#917C31;}
	.st58{fill:#F4C435;}
	.st59{fill:#F1BC02;}
	.st60{fill:#F0B102;}
	.st61{fill:#F1F7BA;}
	.st62{fill:#E3DCB9;}
	.st63{fill:#BD6800;}
	.st64{fill:#E19704;}
	.st65{fill:#B2CA2B;}
	.st66{fill:#AFC20F;}
	.st67{fill:#B9CB00;}
	.st68{fill:#E5F392;}
	.st69{fill:#F78202;}
	.st70{fill:#F79613;}
	.st71{fill:#331F07;}
	.st72{fill:#402B16;}
	.st73{fill:#669404;}
	.st74{fill:#F58E13;}
	.st75{fill:#D87117;}
	.st76{fill:#216604;}
	.st77{fill:#286D08;}
	.st78{fill:#C8C625;}
	.st79{fill:#2C441F;}
	.st80{fill:#F1E6BF;}
	.st81{fill:#F2BE2E;}
	.st82{fill:#BF8F33;}
	.st83{fill:#568804;}
	.st84{fill:#669614;}
	.st85{fill:#688E0C;}
	.st86{fill:#4C7005;}
	.st87{fill:#A0CA49;}
	.st88{fill:#99BD70;}
	.st89{fill:#78AA25;}
	.st90{fill:#4B7C23;}
	.st91{fill:#EADBC8;}
	.st92{fill:#F0D5B0;}
	.st93{fill:#DF2B2B;}
	.st94{fill:#D1262C;}
	.st95{fill:#B7252C;}
	.st96{fill:#46670C;}
	.st97{fill:#F49D5B;}
	.st98{fill:#F57A55;}
	.st99{fill:#F1C3A7;}
	.st100{fill:#CC0917;}
	.st101{fill:#DC1035;}
	.st102{fill:#9BAC0F;}
	.st103{fill:#667A1D;}
	.st104{fill:#7A9D18;}
	.st105{fill:#F6F7E6;}
	.st106{fill:#F0194D;}
	.st107{fill:#362420;}
	.st108{fill:#530618;}
	.st109{fill:#44041A;}
	.st110{fill:#490419;}
	.st111{fill:#F8A459;}
	.st112{fill:#871B22;}
	.st113{fill:#600613;}
	.st114{fill:#F8C790;}
	.st115{fill:#447832;}
	.st116{fill:#7C473D;}
	.st117{fill:#441432;}
	.st118{fill:#51163F;}
	.st119{fill:#5B1A41;}
	.st120{fill:#FCEBF9;}
	.st121{fill:#ECE5CE;}
	.st122{fill:#BC3E2C;}
	.st123{fill:#A60F26;}
	.st124{fill:#C61632;}
	.st125{fill:#BD1331;}
	.st126{fill:#F8B772;}
	.st127{fill:#F7DDAC;}
	.st128{fill:#850E11;}
	.st129{fill:#191200;}
	.st130{fill:#553D2D;}
	.st131{fill:#F9E2D2;}
	.st132{fill:#CA8937;}
	.st133{fill:#462D16;}
	.st134{fill:#6D8916;}
	.st135{fill:#96B54E;}
	.st136{fill:#E3E2DE;}
	.st137{fill:#261811;}
	.st138{fill:#525C11;}
	.st139{fill:#14581E;}
	.st140{fill:#3D7712;}
	.st141{fill:#9BC148;}
	.st142{fill:#E22434;}
	.st143{fill:#C6DD9E;}
	.st144{fill:#F89A07;}
	.st145{fill:#F7A410;}
	.st146{fill:#F8AB19;}
	.st147{fill:#F7B81C;}
	.st148{fill:#E5870A;}
	.st149{fill:#97A304;}
	.st150{fill:#A88C5C;}
	.st151{fill:#ADC21E;}
	.st152{fill:#A3BA0B;}
	.st153{fill:#8D9E08;}
	.st154{fill:#E0DAB9;}
	.st155{fill:#684219;}
	.st156{fill:#777F05;}
	.st157{fill:#F2E9C4;}
	.st158{fill:#CBB465;}
	.st159{fill:#FFF5CA;}
	.st160{fill:#E52828;}
	.st161{fill:#F87302;}
	.st162{fill:#FF7B22;}
	.st163{fill:#FC7F10;}
	.st164{fill:#F8A200;}
	.st165{fill:#F8DC91;}
	.st166{fill:#FFFFFF;}
	.st167{fill:#F5D7D5;}
	.st168{fill:#EDA07A;}
	.st169{fill:#FCBEBE;}
	.st170{fill:#EAD991;}
	.st171{fill:#582612;}
</style>
<g id="_x33_0_Mulberry"/>
<g id="_x32_9_Star_Fruit"/>
<g id="_x32_8_Apricot"/>
<g id="_x32_7_Litchi"/>
<g id="_x32_6_Kiwi"/>
<g id="_x32_5_Jackfruit"/>
<g id="_x32_4_Avacado"/>
<g id="_x32_3_Blueberry"/>
<g id="_x32_2_Purple_Grapes"/>
<g id="_x32_1_Melon"/>
<g id="_x32_0_Green_Grapes"/>
<g id="_x31_9_Papaya"/>
<g id="_x31_8_Pineapple"/>
<g id="_x31_7_Banana"/>
<g id="_x31_6_Tender_Coconut"/>
<g id="_x31_5_Strawberry"/>
<g id="_x31_4_Dragon_Fruit"/>
<g id="_x31_3_Plum"/>
<g id="_x31_2_Fig"/>
<g id="_x31_1_Peach"/>
<g id="_x31_0_Cherry"/>
<g id="_x30_9_Sapota"/>
<g id="_x30_8_Custard_Apple"/>
<g id="_x30_7_Watermelon"/>
<g id="_x30_6_Mango"/>
<g id="_x30_5_Pear"/>
<g id="_x30_4_Guava">
<g id="XMLID_195_">
<g id="XMLID_221_">
<g id="XMLID_222_">
<path class="st149" d="M40.281,11.197c-3.365,5.211-3.779,11.302-1.707,16.602      c6.003-0.786,11.588-3.986,14.954-9.197C56.893,13.39,57.307,7.3,55.235,2C49.232,2.786,43.646,5.986,40.281,11.197z" id="XMLID_224_"/>
<path class="st150" d="M39.026,44.296c-1.104,0-2-0.896-2-2V31.664c0-4.846-2.421-9.319-6.476-11.966      c-0.926-0.604-1.186-1.843-0.582-2.768s1.845-1.185,2.768-0.582c5.191,3.388,8.29,9.114,8.29,15.315v10.632      C41.026,43.4,40.131,44.296,39.026,44.296z"/>
</g>
<path class="st151" d="M76.577,70.501C76.577,92.939,63.219,110,39.289,110S2,92.939,2,70.501     C2,54.92,16.229,34.546,39.009,34.501C61.975,34.455,76.577,53.675,76.577,70.501z" id="XMLID_240_"/>
<path class="st152" d="M39.009,34.501C16.229,34.546,2,54.92,2,70.501C2,92.939,15.358,110,39.289,110     C12.357,86.118,16.092,52.43,39.009,34.501z" id="XMLID_664_"/>
<path class="st153" d="M12,70.501c0-14.445,12.235-32.996,32.169-35.664c-1.67-0.216-3.387-0.34-5.16-0.337     C16.229,34.546,2,54.92,2,70.501C2,92.939,15.358,110,39.289,110c1.724,0,3.387-0.099,5-0.271     C23.509,107.504,12,91.322,12,70.501z" id="XMLID_995_"/>
<path class="st25" d="M18.109,93.43c-0.13,0-0.26-0.02-0.39-0.04c-0.13-0.03-0.26-0.07-0.38-0.12c-0.12-0.05-0.23-0.11-0.34-0.18     c-0.11-0.07-0.21-0.16-0.311-0.25c-0.09-0.09-0.17-0.19-0.25-0.3c-0.069-0.11-0.13-0.23-0.18-0.35s-0.09-0.24-0.11-0.37     c-0.029-0.13-0.04-0.26-0.04-0.39c0-0.53,0.21-1.05,0.58-1.42c0.101-0.09,0.2-0.17,0.311-0.25c0.109-0.07,0.22-0.13,0.34-0.18     c0.12-0.05,0.25-0.09,0.38-0.11c0.64-0.14,1.34,0.08,1.8,0.54c0.09,0.1,0.181,0.2,0.25,0.31c0.07,0.11,0.13,0.22,0.181,0.34     c0.06,0.12,0.09,0.25,0.119,0.38c0.03,0.13,0.04,0.26,0.04,0.39c0,0.13-0.01,0.26-0.04,0.39c-0.029,0.13-0.06,0.25-0.119,0.37     c-0.051,0.12-0.11,0.24-0.181,0.35c-0.069,0.11-0.16,0.21-0.25,0.3C19.149,93.21,18.64,93.43,18.109,93.43z"/>
<path class="st25" d="M13.397,87.08c-0.807,0-1.566-0.491-1.869-1.29c-3.725-9.801-3.229-20.657,1.357-29.786     c0.496-0.987,1.695-1.385,2.686-0.889c0.986,0.496,1.385,1.698,0.889,2.685c-4.085,8.129-4.52,17.813-1.193,26.569     c0.393,1.033-0.126,2.188-1.159,2.58C13.874,87.038,13.634,87.08,13.397,87.08z"/>
</g>
<g id="XMLID_196_">
<path class="st157" d="M41.005,90c-0.004,0.152-0.038,0.307-0.016,0.456     c3.143,21.575,17.408,35.616,42.502,35.544c25.132-0.072,39.37-14.589,42.502-35.544c0.022-0.15-0.012-0.304-0.016-0.456H41.005z     " id="XMLID_220_"/>
<g id="XMLID_197_">
<g id="XMLID_463_">
<path class="st158" d="M59.291,95.415c-0.373-0.638-0.992-1.122-1.707-1.307       c-0.711-0.199-1.494-0.101-2.135,0.265c-0.63,0.36-1.108,0.981-1.29,1.69c-0.377,1.414,0.571,3.037,1.992,3.411       c0.712,0.199,1.495,0.1,2.125-0.259c0.64-0.365,1.118-0.987,1.299-1.695C59.772,96.814,59.658,96.042,59.291,95.415z" id="XMLID_487_"/>
<path class="st158" d="M73.733,113.324c-0.645-0.368-1.427-0.482-2.139-0.288       c-0.717,0.179-1.345,0.651-1.715,1.284c-0.364,0.623-0.464,1.397-0.262,2.101c0.389,1.411,2.031,2.348,3.45,1.969       c0.717-0.18,1.345-0.652,1.709-1.275c0.37-0.633,0.469-1.407,0.268-2.11C74.858,114.299,74.368,113.686,73.733,113.324z" id="XMLID_486_"/>
<path class="st158" d="M83.496,114.256c-0.745,0-1.479,0.288-1.998,0.808c-0.53,0.509-0.835,1.229-0.835,1.96       c0,0.72,0.305,1.439,0.835,1.949c1.05,1.029,2.946,1.029,3.984,0c0.53-0.51,0.835-1.229,0.835-1.949       c0-0.731-0.305-1.451-0.835-1.96C84.963,114.544,84.229,114.256,83.496,114.256z" id="XMLID_485_"/>
<path class="st158" d="M93.257,113.319c-0.645,0.368-1.135,0.981-1.322,1.688       c-0.202,0.703-0.102,1.477,0.268,2.11c0.364,0.623,0.992,1.096,1.709,1.275c1.43,0.372,3.072-0.565,3.45-1.969       c0.201-0.704,0.102-1.478-0.262-2.101c-0.37-0.633-0.998-1.105-1.715-1.284C94.673,112.844,93.891,112.957,93.257,113.319z" id="XMLID_484_"/>
<path class="st158" d="M107.694,95.404c-0.373,0.638-0.487,1.41-0.291,2.115       c0.181,0.709,0.659,1.33,1.299,1.695c0.63,0.36,1.413,0.458,2.125,0.259c1.427-0.385,2.375-2.007,1.992-3.411       c-0.182-0.709-0.659-1.33-1.29-1.69c-0.64-0.365-1.423-0.464-2.135-0.265C108.68,94.292,108.061,94.777,107.694,95.404z" id="XMLID_483_"/>
<path class="st158" d="M83.496,93.288c-0.745,0-1.479,0.288-1.998,0.808c-0.53,0.509-0.835,1.229-0.835,1.96       c0,0.72,0.305,1.439,0.835,1.949c1.05,1.029,2.946,1.029,3.984,0c0.53-0.51,0.835-1.229,0.835-1.949       c0-0.731-0.305-1.451-0.835-1.96C84.963,93.576,84.229,93.288,83.496,93.288z" id="XMLID_482_"/>
<path class="st158" d="M95.895,93.288c-0.745,0-1.479,0.288-1.998,0.808c-0.53,0.509-0.835,1.229-0.835,1.96       c0,0.72,0.305,1.439,0.835,1.949c1.05,1.029,2.946,1.029,3.984,0c0.53-0.51,0.835-1.229,0.835-1.949       c0-0.731-0.305-1.451-0.835-1.96C97.362,93.576,96.628,93.288,95.895,93.288z" id="XMLID_481_"/>
<path class="st158" d="M71.097,93.288c-0.745,0-1.479,0.288-1.998,0.808c-0.53,0.509-0.835,1.229-0.835,1.96       c0,0.72,0.305,1.439,0.835,1.949c1.05,1.029,2.946,1.029,3.984,0c0.53-0.51,0.835-1.229,0.835-1.949       c0-0.731-0.305-1.451-0.835-1.96C72.564,93.576,71.83,93.288,71.097,93.288z" id="XMLID_480_"/>
<path class="st158" d="M65.129,105.378c-0.645-0.368-1.427-0.482-2.139-0.288       c-0.717,0.179-1.345,0.651-1.715,1.284c-0.364,0.623-0.464,1.397-0.262,2.101c0.389,1.411,2.031,2.348,3.45,1.969       c0.717-0.18,1.345-0.652,1.709-1.275c0.37-0.633,0.469-1.407,0.268-2.11C66.254,106.353,65.764,105.741,65.129,105.378z" id="XMLID_479_"/>
<path class="st158" d="M105.826,105.378c-0.645-0.368-1.427-0.482-2.139-0.288       c-0.717,0.179-1.345,0.651-1.715,1.284c-0.364,0.623-0.464,1.397-0.262,2.101c0.389,1.411,2.031,2.348,3.45,1.969       c0.717-0.18,1.345-0.652,1.709-1.275c0.37-0.633,0.469-1.407,0.268-2.11C106.95,106.353,106.46,105.741,105.826,105.378z" id="XMLID_478_"/>
<path class="st158" d="M84.22,103.273c-0.624-0.356-1.381-0.466-2.07-0.278       c-0.694,0.173-1.302,0.63-1.659,1.243c-0.352,0.603-0.449,1.352-0.254,2.033c0.376,1.365,1.965,2.272,3.339,1.906       c0.694-0.174,1.302-0.631,1.654-1.234c0.358-0.613,0.454-1.362,0.259-2.042C85.308,104.216,84.834,103.623,84.22,103.273z" id="XMLID_477_"/>
<path class="st158" d="M74.22,103.273c-0.624-0.356-1.381-0.466-2.07-0.278       c-0.694,0.173-1.302,0.63-1.659,1.243c-0.352,0.603-0.449,1.352-0.254,2.033c0.376,1.365,1.965,2.272,3.339,1.906       c0.694-0.174,1.302-0.631,1.654-1.234c0.358-0.613,0.454-1.362,0.259-2.042C75.308,104.216,74.834,103.623,74.22,103.273z" id="XMLID_465_"/>
<path class="st158" d="M94.22,103.273c-0.624-0.356-1.381-0.466-2.07-0.278       c-0.694,0.173-1.302,0.63-1.659,1.243c-0.352,0.603-0.449,1.352-0.254,2.033c0.376,1.365,1.965,2.272,3.339,1.906       c0.694-0.174,1.302-0.631,1.654-1.234c0.358-0.613,0.454-1.362,0.259-2.042C95.308,104.216,94.834,103.623,94.22,103.273z" id="XMLID_464_"/>
</g>
</g>
<path class="st152" d="M125.338,90c-4.154,19.028-18.159,31.932-41.847,32     c-23.691,0.068-37.724-12.446-41.865-32h-0.621c-0.004,0.152-0.038,0.307-0.016,0.456c3.143,21.575,17.408,35.616,42.502,35.544     c25.132-0.072,39.37-14.589,42.502-35.544c0.022-0.15-0.012-0.304-0.016-0.456H125.338z" id="XMLID_253_"/>
</g>
</g>
</g>
<g id="_x30_3_Pomegranate"/>
<g id="_x30_2_Orange"/>
<g id="_x30_1_Apple"/>
</svg>