<?xml version="1.0" ?>
<!DOCTYPE svg  PUBLIC '-//W3C//DTD SVG 1.1//EN'  'http://www.w3.org/Graphics/SVG/1.1/DTD/svg11.dtd'>
<!-- Uploaded to: SVG Repo, www.svgrepo.com, Generator: SVG Repo Mixer Tools -->
<svg fill="#000000" width="800px" height="800px" viewBox="0 0 64 64" style="fill-rule:evenodd;clip-rule:evenodd;stroke-linejoin:round;stroke-miterlimit:2;" version="1.1" xml:space="preserve" xmlns="http://www.w3.org/2000/svg" xmlns:serif="http://www.serif.com/" xmlns:xlink="http://www.w3.org/1999/xlink">
<g transform="matrix(1,0,0,1,-96,-288)">
<g id="Icon">
<g transform="matrix(1.07357,-2.62095e-17,-2.54828e-17,-1.04381,-1.44755,623.262)">
<path d="M116.481,308.101L141.694,299.095C142.18,298.922 142.711,299.186 142.88,299.686C143.049,300.185 142.791,300.732 142.306,300.905L117.092,309.911C116.606,310.084 116.075,309.819 115.906,309.32C115.738,308.82 115.995,308.274 116.481,308.101Z" style="fill:rgb(181,129,49);"/>
</g>
<path d="M122.931,300.698C122.922,301.12 123.183,301.519 123.603,301.664L150.672,311.065C151.193,311.246 151.764,310.969 151.945,310.448C152.118,309.948 151.871,309.402 151.39,309.199C151.388,309.301 151.37,309.404 151.335,309.505C151.154,310.027 150.583,310.303 150.062,310.122L122.993,300.722C122.972,300.715 122.951,300.707 122.931,300.698Z" style="fill:rgb(154,110,42);"/>
<path d="M109.035,317.776L123.931,317.776C124.483,317.776 124.931,317.329 124.931,316.776L124.931,298.482C124.931,296.559 123.372,295 121.449,295L121.447,295C120.476,295 119.597,295.398 118.965,296.04C118.334,295.398 117.455,295 116.484,295L116.482,295C115.51,295 114.632,295.398 114,296.04C113.368,295.398 112.49,295 111.518,295L111.516,295C109.593,295 108.035,296.559 108.035,298.482C108.035,303.995 108.035,316.776 108.035,316.776C108.035,317.329 108.482,317.776 109.035,317.776ZM113,315.776L110.035,315.776C110.035,315.776 110.035,298.482 110.035,298.482C110.035,297.664 110.698,297 111.516,297C111.517,297 111.518,297 111.518,297C112.337,297 113,297.664 113,298.482L113,315.776ZM117.965,315.776L115,315.776C115,315.776 115,298.482 115,298.482C115,297.664 115.663,297 116.482,297C116.482,297 116.483,297 116.483,297C117.302,297 117.965,297.664 117.965,298.482L117.965,315.776ZM122.931,315.776L119.966,315.776C119.965,315.776 119.965,298.482 119.965,298.482C119.965,297.664 120.629,297 121.447,297C121.448,297 121.449,297 121.449,297C122.268,297 122.931,297.664 122.931,298.482L122.931,315.776Z" style="fill:rgb(255,252,92);"/>
<g transform="matrix(1.175,9.06359e-17,-8.81229e-17,1.14242,-15.845,-43.0071)">
<path d="M102.599,309.855L142.184,300.855C142.642,300.75 142.932,300.283 142.831,299.811C142.73,299.339 142.275,299.041 141.816,299.145L102.232,308.145C101.773,308.25 101.483,308.717 101.584,309.189C101.686,309.661 102.14,309.959 102.599,309.855Z" style="fill:rgb(181,129,49);"/>
</g>
<path d="M150.883,298.726C150.963,298.835 151.022,298.962 151.053,299.102C151.172,299.641 150.831,300.175 150.292,300.294L103.78,310.576C103.749,310.583 103.718,310.588 103.686,310.592C103.913,310.901 104.31,311.065 104.708,310.977L151.22,300.695C151.759,300.576 152.1,300.042 151.981,299.503C151.869,298.995 151.389,298.664 150.883,298.726Z" style="fill:rgb(154,110,42);"/>
<path d="M99.304,316.776L99.304,316.778C99.304,332.365 111.939,345 127.526,345L129.082,345C144.668,345 157.304,332.365 157.304,316.778C157.304,317.14 157.304,317.071 157.304,316.776C157.304,316.224 156.855,315.776 156.304,315.776L100.304,315.776C99.752,315.776 99.304,316.224 99.304,316.776Z" style="fill:rgb(245,240,229);"/>
<path d="M156.67,322.753C156.887,321.744 155.243,322.219 153.526,322.275C151.964,322.326 150.342,321.858 150.005,322.943C146.44,334.446 135.718,342.799 123.044,342.799L121.488,342.799C119.22,342.799 117.015,342.532 114.904,342.027C118.701,343.929 122.988,345 127.526,345L129.082,345C142.618,345 153.929,335.47 156.67,322.753Z" style="fill:rgb(234,222,199);"/>
<path d="M100.043,323.224L156.563,323.227C157.047,321.157 157.304,318.998 157.304,316.778C157.304,317.14 157.304,317.071 157.304,316.776C157.304,316.224 156.855,315.776 156.304,315.776L100.304,315.776C99.752,315.776 99.304,316.224 99.304,316.776L99.304,316.778C99.304,318.996 99.559,321.154 100.043,323.224Z" style="fill:rgb(181,129,49);"/>
<path d="M156.304,315.776L149.749,315.776C150.3,315.776 150.749,316.224 150.749,316.776C150.749,317.071 150.749,317.14 150.749,316.778C150.749,318.997 150.492,321.157 150.008,323.227L156.563,323.227C157.047,321.157 157.304,318.998 157.304,316.778C157.304,317.14 157.304,317.071 157.304,316.776C157.304,316.224 156.855,315.776 156.304,315.776Z" style="fill:rgb(154,110,42);"/>
</g>
</g>
</svg>