<?xml version="1.0" ?>
<!DOCTYPE svg  PUBLIC '-//W3C//DTD SVG 1.1//EN'  'http://www.w3.org/Graphics/SVG/1.1/DTD/svg11.dtd'>
<!-- Uploaded to: SVG Repo, www.svgrepo.com, Generator: SVG Repo Mixer Tools -->
<svg fill="#000000" width="800px" height="800px" viewBox="0 0 64 64" style="fill-rule:evenodd;clip-rule:evenodd;stroke-linejoin:round;stroke-miterlimit:2;" version="1.1" xml:space="preserve" xmlns="http://www.w3.org/2000/svg" xmlns:serif="http://www.serif.com/" xmlns:xlink="http://www.w3.org/1999/xlink">
<g transform="matrix(1,0,0,1,-288,-384)">
<g id="Icon">
<path d="M337.653,412.361C337.475,412.464 337.313,412.621 337.215,412.873C337.176,412.974 337.09,413.375 337.313,413.958C338.095,416.003 343.018,425.642 343.018,425.642C343.252,426.1 343.796,426.306 344.274,426.118C344.626,425.98 344.971,425.814 345.308,425.62C348.967,423.507 350.222,418.822 348.11,415.163C345.998,411.504 341.312,410.249 337.653,412.361Z" style="fill:rgb(143,244,103);"/>
<path d="M340.596,411.386C342.923,411.653 345.098,412.98 346.358,415.163C348.471,418.822 347.215,423.507 343.556,425.62C343.422,425.697 343.287,425.77 343.15,425.839C343.421,426.155 343.871,426.277 344.274,426.118C344.626,425.98 344.971,425.814 345.308,425.62C348.967,423.507 350.222,418.822 348.11,415.163C346.537,412.438 343.537,411.046 340.596,411.386Z" style="fill:rgb(117,241,68);"/>
<path d="M325.753,406.065C325.647,406.25 325.582,406.478 325.636,406.761C325.655,406.861 325.79,407.237 326.268,407.618C327.979,408.98 337.075,414.844 337.075,414.844C337.509,415.124 338.085,415.027 338.404,414.62C338.624,414.339 338.828,414.039 339.012,413.72C341.124,410.061 339.869,405.375 336.21,403.263C332.551,401.151 327.866,402.406 325.753,406.065Z" style="fill:rgb(143,244,103);"/>
<path d="M331.588,402.28C332.62,402.389 333.647,402.711 334.603,403.263C338.262,405.375 339.517,410.061 337.405,413.72C337.221,414.039 337.017,414.339 336.797,414.62C336.789,414.63 336.781,414.64 336.773,414.649C336.968,414.775 337.075,414.844 337.075,414.844C337.509,415.124 338.085,415.027 338.404,414.62C338.624,414.339 338.828,414.039 339.012,413.72C341.124,410.061 339.869,405.375 336.21,403.263C334.756,402.424 333.14,402.116 331.588,402.28Z" style="fill:rgb(117,241,68);"/>
<path d="M312.3,406.562C312.3,406.774 312.358,407.001 312.539,407.216C312.606,407.296 312.913,407.561 313.525,407.651C315.689,407.969 326.509,408.44 326.509,408.44C327.026,408.462 327.475,408.085 327.543,407.572C327.587,407.242 327.61,406.905 327.61,406.562C327.61,402.337 324.179,398.907 319.955,398.907C315.73,398.907 312.3,402.337 312.3,406.562Z" style="fill:rgb(143,244,103);"/>
<path d="M323.128,399.595C324.205,400.914 324.852,402.598 324.852,404.432C324.852,404.775 324.829,405.112 324.785,405.442C324.717,405.956 324.268,406.332 323.751,406.31C323.751,406.31 316.06,405.975 312.35,405.68C312.317,405.969 312.3,406.264 312.3,406.562C312.3,406.774 312.358,407.001 312.539,407.216C312.606,407.296 312.913,407.561 313.525,407.651C315.689,407.969 326.509,408.44 326.509,408.44C327.026,408.462 327.475,408.085 327.543,407.572C327.587,407.242 327.61,406.905 327.61,406.562C327.61,403.469 325.771,400.802 323.128,399.595Z" style="fill:rgb(117,241,68);"/>
<path d="M300.897,413.72C300.997,413.893 301.148,414.049 301.383,414.148C301.489,414.193 301.9,414.291 302.497,414.062C304.544,413.277 314.151,408.262 314.151,408.262C314.609,408.023 314.809,407.474 314.613,406.997C314.484,406.68 314.332,406.369 314.156,406.065C312.043,402.406 307.358,401.151 303.699,403.263C300.04,405.375 298.785,410.061 300.897,413.72Z" style="fill:rgb(143,244,103);"/>
<path d="M295.73,426.155C296.19,426.328 296.709,426.142 296.952,425.714L303.458,414.29C303.701,413.862 303.597,413.321 303.213,413.014C302.915,412.776 302.596,412.557 302.256,412.361C298.597,410.249 293.912,411.504 291.799,415.163C289.687,418.822 290.942,423.507 294.601,425.62C294.968,425.832 295.346,426.01 295.73,426.155Z" style="fill:rgb(143,244,103);"/>
<path d="M294.308,431.418C294.308,431.971 294.756,432.418 295.308,432.418L344.692,432.418C345.244,432.418 345.692,431.971 345.692,431.418C345.692,417.142 334.178,405.554 320,405.554C305.822,405.554 294.308,417.142 294.308,431.418Z" style="fill:rgb(248,172,58);"/>
<path d="M330.288,407.715C337.567,412.282 342.417,420.414 342.417,429.68C342.417,430.232 341.969,430.68 341.417,430.68L294.319,430.68C294.312,430.925 294.308,431.171 294.308,431.418C294.308,431.971 294.756,432.418 295.308,432.418L344.692,432.418C345.244,432.418 345.692,431.971 345.692,431.418C345.692,420.824 339.351,411.71 330.288,407.715Z" style="fill:rgb(243,148,4);"/>
<g transform="matrix(0.968806,0,0,1.2129,8.03426,-93.1834)">
<ellipse cx="309.35" cy="421.443" rx="1.29" ry="1.053" style="fill:rgb(243,148,4);"/>
</g>
<g transform="matrix(0.968806,0,0,1.2129,15.7744,-85.7797)">
<ellipse cx="309.35" cy="421.443" rx="1.29" ry="1.053" style="fill:rgb(243,148,4);"/>
</g>
<g transform="matrix(0.968806,0,0,1.2129,33.2996,-94.4796)">
<ellipse cx="309.35" cy="421.443" rx="1.29" ry="1.053" style="fill:rgb(243,148,4);"/>
</g>
<g transform="matrix(0.968806,0,0,1.2129,17.4115,-96.0126)">
<ellipse cx="309.35" cy="421.443" rx="1.29" ry="1.053" style="fill:rgb(243,148,4);"/>
</g>
<g transform="matrix(0.968806,0,0,1.2129,25.8163,-89.6373)">
<ellipse cx="309.35" cy="421.443" rx="1.29" ry="1.053" style="fill:rgb(243,148,4);"/>
</g>
</g>
</g>
</svg>