<?xml version="1.0" encoding="utf-8"?>
<!-- Uploaded to: SVG Repo, www.svgrepo.com, Generator: SVG Repo Mixer Tools -->
<svg width="800px" height="800px" viewBox="0 0 64 64" xmlns="http://www.w3.org/2000/svg" xmlns:xlink="http://www.w3.org/1999/xlink" aria-hidden="true" role="img" class="iconify iconify--emojione" preserveAspectRatio="xMidYMid meet">
<g fill="#ffffff">
<path d="M10.8 26h50.6c-.9-4.4-2.8-8.5-5.4-12H10.8v12">
</path>
<path d="M10.8 38v12H56c2.6-3.5 4.5-7.6 5.4-12H10.8z">
</path>
</g>
<g fill="#ed4c5c">
<path d="M61.4 26H10.8v12h50.6c.4-1.9.6-3.9.6-6s-.2-4.1-.6-6">
</path>
<path d="M10.8 14H56C50.5 6.7 41.8 2 32 2c-8.3 0-15.8 3.4-21.2 8.8V14">
</path>
<path d="M10.8 50v3.2C16.2 58.6 23.7 62 32 62c9.8 0 18.5-4.7 24-12H10.8z">
</path>
</g>
<path d="M10.8 10.8C5.3 16.2 2 23.7 2 32s3.4 15.8 8.8 21.2L32 32L10.8 10.8z" fill="#428bc1">
</path>
<path fill="#ffffff" d="M10 38l4-2.8l4 2.8l-1.5-4.6l4-2.9h-5L14 26l-1.5 4.5h-5l4 2.9z">
</path>
</svg>