<?xml version="1.0" encoding="utf-8"?><!-- Uploaded to: SVG Repo, www.svgrepo.com, Generator: SVG Repo Mixer Tools -->
<svg width="800px" height="800px" viewBox="0 0 64 64" xmlns="http://www.w3.org/2000/svg" xmlns:xlink="http://www.w3.org/1999/xlink" aria-hidden="true" role="img" class="iconify iconify--emojione" preserveAspectRatio="xMidYMid meet"><path d="M32 2c-5.3 0-10.2 1.4-14.5 3.7v52.5C21.8 60.6 26.7 62 32 62c16.6 0 30-13.4 30-30S48.6 2 32 2" fill="#c94747"></path><path d="M32 2c-5.3 0-10.2 1.4-14.5 3.7v52.5C21.8 60.6 26.7 62 32 62c16.6 0 30-13.4 30-30S48.6 2 32 2" opacity=".33" fill="#9450e0"></path><path d="M2 32c0 11.3 6.3 21.1 15.5 26.3L28 56l-10-3l10-3l-10-3l10-3l-10-3l10-3l-10-3l10-3l-10-3l10-3l-10-3l10-3l-10-3l10-3l-10-3l10-3l-10.5-2.3C8.3 10.9 2 20.7 2 32" fill="#f9f9f9"></path></svg>