<?xml version="1.0" encoding="utf-8"?>
<!-- Uploaded to: SVG Repo, www.svgrepo.com, Generator: SVG Repo Mixer Tools -->
<svg width="800px" height="800px" viewBox="0 -11.66 166.522 166.522" xmlns="http://www.w3.org/2000/svg">
  <g id="Group_1440" data-name="Group 1440" transform="translate(-951.569 -1433.01)">
    <g id="Group_1438" data-name="Group 1438">
      <g id="Group_1389" data-name="Group 1389">
        <g id="Group_1388" data-name="Group 1388">
          <g id="Group_1387" data-name="Group 1387">
            <rect id="Rectangle_33" data-name="Rectangle 33" width="85.039" height="17.008" transform="translate(1018.933 1558.485)" fill="#be8a66"/>
          </g>
        </g>
      </g>
      <g id="Group_1392" data-name="Group 1392">
        <g id="Group_1391" data-name="Group 1391">
          <g id="Group_1390" data-name="Group 1390">
            <path id="Path_915" data-name="Path 915" d="M1111.059,1449.329c1.5,1.637,4.252,1.418,4.252,1.418,1.034,1.085,0,2.834,0,2.834,3.565-3.447,1.728-6.9-.248-9.078A6.527,6.527,0,0,0,1111.059,1449.329Z" fill="#b3b3b3"/>
          </g>
        </g>
      </g>
      <g id="Group_1395" data-name="Group 1395">
        <g id="Group_1394" data-name="Group 1394">
          <g id="Group_1393" data-name="Group 1393">
            <path id="Path_916" data-name="Path 916" d="M1115.063,1444.5a15.227,15.227,0,0,0-2.587-2.26c-4.207,0-4.252,4.252-4.252,4.252l-5.669,1.417a25.062,25.062,0,0,1,8.5,1.417A6.527,6.527,0,0,1,1115.063,1444.5Z" fill="#ffff40"/>
          </g>
        </g>
      </g>
      <g id="Group_1398" data-name="Group 1398">
        <g id="Group_1397" data-name="Group 1397">
          <g id="Group_1396" data-name="Group 1396">
            <path id="Path_917" data-name="Path 917" d="M1077.043,1457.833l.479-.479c-2.449-2.34-6.242-3.772-11.816-3.773h0c-11.742,0-39.24,3.986-58.111,18.425a104.47,104.47,0,0,1,26.93-4.252C1048.715,1467.567,1065.762,1469.114,1077.043,1457.833Z" fill="#985c4c"/>
          </g>
        </g>
      </g>
      <g id="Group_1401" data-name="Group 1401">
        <g id="Group_1400" data-name="Group 1400">
          <g id="Group_1399" data-name="Group 1399">
            <path id="Path_918" data-name="Path 918" d="M1068.048,1486.461c8.56-6.143,13.247-13.084,13.247-18.707,0-4.11-1.064-7.811-3.773-10.4l-.479.479c-11.281,11.281-28.328,9.734-42.519,9.921C1034.524,1467.754,1044.419,1482.25,1068.048,1486.461Z" fill="#fda654"/>
          </g>
        </g>
      </g>
      <g id="Group_1404" data-name="Group 1404">
        <g id="Group_1403" data-name="Group 1403">
          <g id="Group_1402" data-name="Group 1402">
            <path id="Path_919" data-name="Path 919" d="M1112.476,1442.243c1.364-2.738-4.252-5.67-4.252-5.67a20.377,20.377,0,0,0-9.921-2.811c-4.329-.041-9.479,1.5-14.173,7.063-10.815,12.818-18.4,12.757-18.424,12.756,11.74,0,15.589,6.346,15.589,14.173,0,11.23-18.691,27.718-49.606,32.6v7.083h8.5a28.879,28.879,0,0,0,8.5-1.388,34.021,34.021,0,0,0,14.173-8.534,23.625,23.625,0,0,0,8.7-1.809c11.671-4.639,21.064-16.616,21.064-16.616s7.086-9.026,7.086-15.59,2.835-9.922,2.835-9.922c5.4.2,8.5-4.252,8.5-4.252a25.062,25.062,0,0,0-8.5-1.417l5.669-1.417S1108.269,1442.243,1112.476,1442.243Z" fill="#e4cec0"/>
          </g>
        </g>
      </g>
      <g id="Group_1407" data-name="Group 1407">
        <g id="Group_1406" data-name="Group 1406">
          <g id="Group_1405" data-name="Group 1405">
            <path id="Path_920" data-name="Path 920" d="M1034.524,1467.754a104.47,104.47,0,0,0-26.93,4.252s-18.6,4.161-26.929,14.174a22.506,22.506,0,0,0-2.834,7.086s9.51.8,21.26-5.669c0,0,22.606,7.051,53.629,7.086a72.16,72.16,0,0,0,15.328-8.222C1044.419,1482.25,1034.524,1467.754,1034.524,1467.754Z" fill="#985c4c"/>
          </g>
        </g>
      </g>
      <g id="Group_1410" data-name="Group 1410">
        <g id="Group_1409" data-name="Group 1409">
          <g id="Group_1408" data-name="Group 1408">
            <path id="Path_921" data-name="Path 921" d="M993.421,1498.936s1.829,2.834,19.843,2.834c.463,0,.921-.008,1.381-.013-12.69-4.428-15.554-14.16-15.554-14.16-11.75,6.467-21.26,5.669-21.26,5.669a22.506,22.506,0,0,1,2.834-7.086s-28.346,3.829-28.346,9.921l9.921,1.417s-6.585,2.146-7.087,8.5h17.008s17.233-.009,21.26-7.064Z" fill="#333"/>
          </g>
        </g>
      </g>
      <g id="Group_1413" data-name="Group 1413">
        <g id="Group_1412" data-name="Group 1412">
          <g id="Group_1411" data-name="Group 1411">
            <path id="Path_922" data-name="Path 922" d="M1052.72,1494.683c-31.023-.035-53.629-7.086-53.629-7.086s2.864,9.732,15.554,14.16a117.5,117.5,0,0,0,17.044-1.4A98.4,98.4,0,0,0,1052.72,1494.683Z" fill="#fda654"/>
          </g>
        </g>
      </g>
      <g id="Group_1416" data-name="Group 1416">
        <g id="Group_1415" data-name="Group 1415">
          <g id="Group_1414" data-name="Group 1414">
            <path id="Path_923" data-name="Path 923" d="M1048.7,1506.052a28.879,28.879,0,0,1-8.5,1.388v8.5h2.835l-2.835,4.252a12.394,12.394,0,0,0,5.669-1.417l-4.252,7.087a13.337,13.337,0,0,0,10.371-4.724c.277-.322.528-.639.753-.946a13.489,13.489,0,0,0,1.632-2.834l8.5-19.843A34.021,34.021,0,0,1,1048.7,1506.052Z" fill="#fda654"/>
          </g>
        </g>
      </g>
      <g id="Group_1419" data-name="Group 1419">
        <g id="Group_1418" data-name="Group 1418">
          <g id="Group_1417" data-name="Group 1417">
            <path id="Path_924" data-name="Path 924" d="M1062.87,1497.518l-8.5,19.843a13.489,13.489,0,0,1-1.632,2.834h3.049c.224,0,.437-.018.649-.036a7.777,7.777,0,0,0,4.115-1.631,9.478,9.478,0,0,0,2.323-2.585l8.5-19.842.2-.392A23.625,23.625,0,0,1,1062.87,1497.518Z" fill="#fda654"/>
          </g>
        </g>
      </g>
      <g id="Group_1422" data-name="Group 1422">
        <g id="Group_1421" data-name="Group 1421">
          <g id="Group_1420" data-name="Group 1420">
            <path id="Path_925" data-name="Path 925" d="M1078.461,1561.3s-1.6-1.3-3.47-2.835-3.987-3.3-5.034-4.252c-2.1-1.9-4.264-8.668-4.264-8.668l-5.146-27.015a7.777,7.777,0,0,1-4.115,1.631c1.631,7.04,5.816,25.161,6.438,28.383.776,4.016,0,5.669,0,5.669a5.681,5.681,0,0,0-2.305.47c1.139,1,2.916,2.474,4.505,3.782,1.865,1.536,3.469,2.835,3.469,2.835V1559a13.09,13.09,0,0,1,5.67,2.3,2.423,2.423,0,0,0,2.477,2.834h3.192A4.178,4.178,0,0,0,1078.461,1561.3Z" fill="#ffff40"/>
          </g>
        </g>
      </g>
      <g id="Group_1425" data-name="Group 1425">
        <g id="Group_1424" data-name="Group 1424">
          <g id="Group_1423" data-name="Group 1423">
            <path id="Path_926" data-name="Path 926" d="M1068.539,1561.3s-1.6-1.3-3.469-2.835c-1.589-1.308-3.366-2.786-4.505-3.782-.2-.171-.376-.33-.53-.47-2.1-1.9-2.834-5.669-2.834-5.669l-5.22-27.4a13.68,13.68,0,0,1-4.361,3.387c1.123,4.945,4.677,20.641,5.329,24.014.776,4.016,0,5.669,0,5.669-4.349,0-5.67,4.252-5.67,4.252h5.671c.49,0,.961.011,1.416.031v7.764a2.113,2.113,0,0,0,.13.709,2.137,2.137,0,0,0,.656.928c-.05-.43-.077-.767-.077-.928a1.417,1.417,0,0,1,2.834,0c0,.161-.027.5-.076.928a2.149,2.149,0,0,0,.655-.928,2.113,2.113,0,0,0,.13-.709V1559a13.081,13.081,0,0,1,5.669,2.3,2.519,2.519,0,0,0,2.835,2.834h2.835A4.177,4.177,0,0,0,1068.539,1561.3Z" fill="#ffff40"/>
          </g>
        </g>
      </g>
      <g id="Group_1428" data-name="Group 1428">
        <g id="Group_1427" data-name="Group 1427">
          <g id="Group_1426" data-name="Group 1426">
            <path id="Path_927" data-name="Path 927" d="M1057.909,1566.967a1.417,1.417,0,0,0-2.834,0c0,.161.027.5.077.928a25.772,25.772,0,0,0,.592,3.324h1.5a25.95,25.95,0,0,0,.593-3.324C1057.882,1567.465,1057.909,1567.128,1057.909,1566.967Z" fill="#b3b3b3"/>
          </g>
        </g>
      </g>
      <g id="Group_1431" data-name="Group 1431">
        <g id="Group_1430" data-name="Group 1430">
          <g id="Group_1429" data-name="Group 1429">
            <path id="Path_928" data-name="Path 928" d="M1075.626,1569.8c3.99-1.433,4.252-4.026,4.252-5.67h-2.835C1078.2,1566.572,1075.626,1569.8,1075.626,1569.8Z" fill="#b3b3b3"/>
          </g>
        </g>
      </g>
      <g id="Group_1434" data-name="Group 1434">
        <g id="Group_1433" data-name="Group 1433">
          <g id="Group_1432" data-name="Group 1432">
            <path id="Path_929" data-name="Path 929" d="M1067.4,1565.948a8.688,8.688,0,0,1-1.69,3.854c3.99-1.433,4.252-4.026,4.252-5.67h-2.835A3.385,3.385,0,0,1,1067.4,1565.948Z" fill="#b3b3b3"/>
          </g>
        </g>
      </g>
      <g id="Group_1437" data-name="Group 1437">
        <g id="Group_1436" data-name="Group 1436">
          <g id="Group_1435" data-name="Group 1435">
            <circle id="Ellipse_127" data-name="Ellipse 127" cx="2.126" cy="2.126" r="2.126" transform="translate(1098.303 1440.825)" fill="#be685c"/>
          </g>
        </g>
      </g>
    </g>
    <g id="Group_1439" data-name="Group 1439">
      <path id="Path_930" data-name="Path 930" d="M1115.618,1444a16.275,16.275,0,0,0-2.245-2.037c.729-3.009-4.055-5.66-4.772-6.038a21.025,21.025,0,0,0-10.291-2.913h-.178c-5.567,0-10.47,2.467-14.575,7.332-10.366,12.285-17.707,12.488-17.847,12.489h-.005c-11.831,0-39.23,3.868-58.431,18.48a75.535,75.535,0,0,0-10.3,3.331c-7.531,3.033-13.132,6.678-16.678,10.831-5.379.739-28.725,4.313-28.725,10.628a.75.75,0,0,0,.644.742l7.478,1.069a10.321,10.321,0,0,0-5.285,8.051.75.75,0,0,0,.747.809h17.009c.7,0,16.613-.087,21.455-6.739,1.651.967,6.361,2.487,19.647,2.487.332,0,.66,0,.989-.008l.4-.005h0a119.181,119.181,0,0,0,16.286-1.289v6.222a.75.75,0,0,0,.75.75h7.754v7.755a.75.75,0,0,0,.75.75h1.433l-2.057,3.086a.75.75,0,0,0,.624,1.166,13.013,13.013,0,0,0,3.857-.606l-3.083,5.139a.749.749,0,0,0,.643,1.135,14.518,14.518,0,0,0,5.475-1.053c1.265,5.576,4.509,19.921,5.127,23.123a12.185,12.185,0,0,1,.173,4.8,6.832,6.832,0,0,0-5.624,4.229h-27.828a.75.75,0,0,0,0,1.5h34.017c.226,0,.448,0,.666.007v7.039a2.762,2.762,0,0,0,.821,1.959,25.649,25.649,0,0,0,.583,3.194h0c.273,1.025.64,1.973,1.472,1.973s1.2-.948,1.473-1.974h0a25.894,25.894,0,0,0,.582-3.194,2.851,2.851,0,0,0,.647-1,2.8,2.8,0,0,0,.174-.959v-6.318a13.266,13.266,0,0,1,4.163,1.728,3.175,3.175,0,0,0,.914,2.306,3.489,3.489,0,0,0,2.122.893,2.815,2.815,0,0,1,.082,1.006,7.98,7.98,0,0,1-1.531,3.461.749.749,0,0,0,.587,1.216.766.766,0,0,0,.253-.043c4.749-1.705,4.749-5.1,4.749-6.375a4.73,4.73,0,0,0-1.418-3.154v-1.038a13.243,13.243,0,0,1,4.163,1.728,3.242,3.242,0,0,0,.779,2.166,3.412,3.412,0,0,0,2.257,1.033c.407,1.616-.865,3.731-1.449,4.467a.749.749,0,0,0,.587,1.216.766.766,0,0,0,.253-.043c4.749-1.705,4.749-5.1,4.749-6.375a4.929,4.929,0,0,0-1.685-3.41l-.011-.009s-.765-.62-1.844-1.5h26.884a.75.75,0,0,0,0-1.5h-28.346a.752.752,0,0,0-.293.06c-1.673-1.378-3.823-3.168-4.873-4.118-1.583-1.433-3.437-6.433-4.039-8.3l-5.055-26.536a10.233,10.233,0,0,0,2.159-2.513c.013-.022.024-.046.035-.069l8.485-19.8.071-.143c11.164-4.555,20.034-15.391,21.025-16.632a.817.817,0,0,0,.086-.108c.312-.4,7.22-9.285,7.242-16.019v-.031a16.294,16.294,0,0,1,2.458-9.165,11.141,11.141,0,0,0,8.228-3.935,6.748,6.748,0,0,0,3.774,1.1,2.334,2.334,0,0,1-.264,1.694.75.75,0,0,0,1.167.92C1118.916,1451.139,1118.84,1447.544,1115.618,1444Zm-49.912,10.332c.044,0,.085,0,.129,0,.548,0,1.082.017,1.6.048.33.019.644.055.962.086.213.021.432.035.639.061.4.051.793.118,1.177.189.1.019.21.033.311.053.422.085.828.185,1.225.294.052.015.108.026.16.041.411.118.805.251,1.187.395.033.013.068.024.1.036.382.148.747.311,1.1.486l.091.044a11.4,11.4,0,0,1,.994.567c.033.021.066.04.1.061a10.5,10.5,0,0,1,.885.644l.06.048c-.02.02-.041.039-.062.059q-.869.855-1.782,1.612l-.1.077q-.917.75-1.874,1.408l-.111.073q-.956.65-1.949,1.214l-.129.07q-.989.554-2.009,1.032c-.052.024-.1.045-.157.069q-1.011.465-2.051.863c-.064.024-.129.045-.192.069q-1.027.384-2.077.707c-.078.025-.158.046-.237.069q-1.019.306-2.054.56c-.107.026-.214.049-.32.074q-.993.234-2,.427c-.142.027-.286.052-.428.078q-.954.174-1.918.314c-.184.027-.368.052-.552.077q-.906.123-1.818.221l-.683.069q-.846.081-1.693.145c-.279.021-.557.04-.835.059q-.78.051-1.56.089-.489.024-.979.043c-.469.019-.939.035-1.407.048-.38.011-.76.021-1.138.028q-.63.014-1.257.022-.648.009-1.293.014c-.369,0-.738.005-1.106.006-.5,0-1,0-1.5,0h-1.469c-.9,0-1.767,0-2.626,0s-1.706.007-2.552.019q-.789.01-1.571.038l-.449.017q-.591.022-1.176.053l-.422.022c-.51.03-1.019.062-1.523.1l-.172.014q-.678.053-1.345.113l-.439.041q-.574.055-1.139.116l-.364.039q-.726.081-1.436.17l-.268.036q-.583.075-1.156.155l-.419.059q-.54.078-1.068.159l-.31.048q-.663.1-1.3.212l-.3.053c-.334.057-.662.116-.987.174l-.379.069q-.505.094-.993.188l-.22.042q-.58.114-1.134.229l-.332.069q-.395.083-.774.165l-.363.079q-.43.094-.84.188l-.164.037c-.315.072-.618.143-.913.214l-.329.079-.56.137-.193.047C1028.868,1458.6,1052.983,1454.331,1065.706,1454.331Zm10.87,4.983c.177-.161.35-.331.524-.5.138-.132.278-.259.415-.394a10.278,10.278,0,0,1,1.293,1.793l.044.076c.169.3.323.614.467.937.024.054.048.109.071.163q.2.458.357.944c.03.09.057.182.085.273.094.3.18.61.255.928.033.141.06.288.09.433.058.284.115.569.159.865.034.229.056.467.081.7s.056.459.073.7c.034.492.055,1,.055,1.519,0,.323-.019.651-.052.983a17.941,17.941,0,0,1-3.861,8.6c-.041.054-.08.109-.122.164-.188.245-.391.492-.591.739-.153.186-.3.373-.462.559-.088.1-.183.208-.273.312a44.75,44.75,0,0,1-7.312,6.554l-.27-.053q-1.478-.276-2.88-.607c-.146-.034-.294-.065-.438-.1-.971-.235-1.913-.489-2.833-.757l-.561-.167c-.913-.275-1.807-.562-2.668-.866-.086-.03-.168-.062-.254-.093-.815-.291-1.6-.595-2.373-.908-.137-.056-.278-.11-.414-.167-.787-.327-1.546-.664-2.284-1.008-.156-.073-.309-.147-.463-.22-.737-.353-1.458-.711-2.145-1.076l-.146-.08c-.661-.354-1.294-.713-1.909-1.074-.118-.07-.24-.139-.357-.209q-.922-.55-1.773-1.107c-.12-.078-.237-.156-.354-.234-.571-.378-1.126-.757-1.649-1.132l-.052-.039c-.516-.372-1-.741-1.473-1.106-.093-.072-.188-.144-.278-.216q-.68-.535-1.293-1.054l-.245-.21c-.4-.342-.783-.678-1.138-1l-.041-.036c-.368-.337-.705-.659-1.026-.973l-.189-.184c-.3-.3-.581-.583-.838-.852l-.138-.146c-.246-.261-.476-.511-.681-.74l-.037-.04c-.216-.242-.4-.461-.573-.662l-.043-.051.571,0c.367,0,.733,0,1.105,0,.646,0,1.29,0,1.958,0,8.521.011,17.8.023,26.037-2.841l.077-.028c.366-.128.729-.26,1.091-.4l.151-.062c.334-.131.668-.265,1-.406.086-.037.17-.077.255-.114.3-.129.589-.259.88-.4.106-.05.21-.1.315-.156.269-.13.537-.261.8-.4.126-.066.25-.137.375-.205.242-.13.485-.259.724-.4.139-.08.276-.166.415-.248.222-.133.445-.263.665-.4.152-.1.3-.2.452-.3.2-.133.406-.263.606-.4.166-.115.33-.238.494-.357.181-.131.364-.259.543-.395s.339-.268.509-.4.339-.264.506-.4.342-.3.512-.445S1076.418,1459.458,1076.576,1459.314Zm-97.091,30.97c.115-.3.232-.585.348-.857.017-.039.033-.078.05-.116.115-.266.23-.516.341-.748l.048-.1c.11-.228.216-.44.316-.631l.04-.076c.1-.19.194-.363.276-.509l.018-.032c.085-.15.16-.279.218-.376v0c.061-.1.106-.174.131-.213,8.078-9.672,26.3-13.843,26.486-13.885a.456.456,0,0,0,.064-.017l.049-.015.266-.081.038-.012.4-.119.178-.051.052-.015.322-.092.189-.052.255-.072.178-.048.327-.089.164-.044.4-.1.164-.042c.148-.039.3-.078.454-.118l.152-.038.51-.129.228-.056.479-.117.274-.065.5-.118.237-.055.572-.131.273-.06.581-.129.3-.063.6-.128.32-.065.616-.126.343-.068.631-.123.352-.066c.221-.041.441-.083.667-.123l.348-.062c.229-.041.457-.082.691-.122l.388-.065c.228-.038.456-.077.688-.114l.413-.065c.229-.037.458-.073.691-.108l.431-.063c.234-.035.468-.069.7-.1l.446-.061c.236-.032.472-.064.712-.094.151-.02.305-.038.457-.057l.732-.089.463-.052.737-.08.49-.049.736-.071c.164-.015.33-.028.5-.042q.374-.033.75-.062c.166-.013.333-.024.5-.036.251-.018.5-.036.755-.052l.525-.03c.247-.014.494-.028.742-.04.182-.009.365-.015.547-.023.245-.01.489-.02.734-.028.185-.006.371-.01.557-.015l.523-.011c.017.024.042.056.062.082s.056.077.09.121l.13.167c.034.044.064.084.1.131.067.086.143.181.222.278l.063.078c.1.127.217.263.338.406l.115.134c.09.1.181.212.281.325.05.058.106.119.159.179.095.107.191.214.294.327l.193.209c.1.11.206.221.316.336.072.077.147.155.223.234.113.116.227.234.347.355.08.082.161.163.245.247q.188.186.386.379l.266.256c.14.135.287.272.436.41l.269.25c.169.154.345.311.522.469.082.072.16.143.244.216.234.2.478.414.728.624l.1.083q.437.365.9.737l.158.124c.258.2.521.408.793.615.1.075.2.151.3.226.232.174.467.347.709.522.123.089.25.178.376.266.231.164.464.327.7.491.138.094.279.188.419.282.238.159.479.318.726.478.15.1.3.193.454.289q.375.239.765.475c.156.1.312.19.471.285.269.16.544.319.822.478.16.091.318.183.48.274.3.166.6.332.912.5.151.081.3.162.451.242.37.194.75.386,1.135.577.1.048.192.1.291.146q.742.363,1.52.716c.038.018.078.034.116.051q.708.32,1.446.63c.16.067.325.131.488.2.376.153.754.306,1.141.456.2.078.411.154.617.231.358.133.718.266,1.085.4.228.08.46.158.691.237.357.121.716.24,1.081.356.246.078.493.155.743.231.365.112.736.221,1.11.328.257.074.514.146.775.217q.573.156,1.16.3c.262.066.523.133.788.2.409.1.826.191,1.245.283.258.057.513.116.775.17.077.016.151.035.228.051a72.833,72.833,0,0,1-13.577,7.069c-.556,0-1.1-.008-1.654-.014-.367,0-.737,0-1.1-.009-.561-.009-1.113-.024-1.667-.037-.374-.009-.752-.014-1.124-.025-.554-.016-1.1-.038-1.649-.058-.361-.014-.726-.024-1.083-.039-.537-.023-1.065-.051-1.595-.077-.363-.018-.732-.034-1.092-.053-.524-.029-1.039-.063-1.557-.095-.354-.022-.714-.042-1.065-.065-.512-.035-1.013-.074-1.518-.111-.349-.026-.7-.05-1.05-.078-.5-.039-.989-.083-1.482-.126-.339-.029-.683-.056-1.019-.087-.487-.044-.963-.092-1.442-.139-.332-.033-.67-.063-1-.1-.461-.047-.912-.1-1.366-.147-.334-.037-.675-.072-1-.109-.435-.05-.858-.1-1.286-.153-.339-.041-.683-.08-1.017-.122-.419-.052-.825-.106-1.235-.16-.33-.043-.666-.085-.991-.129-.426-.057-.839-.117-1.256-.176-.3-.042-.6-.083-.9-.125-.394-.058-.774-.116-1.16-.175-.306-.046-.618-.091-.918-.138-.387-.06-.761-.122-1.139-.183-.283-.045-.572-.09-.85-.136-.371-.061-.728-.123-1.089-.185l-.826-.141c-.337-.059-.66-.118-.989-.177-.277-.05-.562-.1-.833-.15-.334-.061-.653-.123-.977-.184l-.758-.143c-.336-.065-.656-.129-.981-.194-.219-.044-.447-.087-.661-.131-.312-.063-.607-.125-.907-.187-.215-.044-.437-.089-.645-.133l-.791-.17-.663-.143c-.234-.051-.451-.1-.677-.151s-.461-.1-.678-.152l-.507-.117c-.252-.058-.509-.117-.748-.174l-.306-.073-.841-.2c-.224-.054-.429-.106-.64-.158l-.391-.1-.82-.209-.111-.029c-.191-.049-.362-.094-.537-.141l-.285-.074-.5-.136-.2-.053-.353-.1-.233-.065-.058-.016c-.28-.079-.5-.143-.67-.193-.227-.066-.361-.107-.376-.112a.781.781,0,0,0-.213-.033h-.011l-.017,0h0a.349.349,0,0,0-.056.006.738.738,0,0,0-.284.081h0a42.626,42.626,0,0,1-19.9,5.6h-.061c.1-.376.2-.741.315-1.095.008-.026.016-.054.025-.08.108-.337.222-.659.339-.97Zm14.554,8.22a.682.682,0,0,0-.809-.341.735.735,0,0,0-.516.518c-3.871,6.5-20.386,6.591-20.553,6.591H956c.907-5.148,6.233-6.963,6.47-7.041a.75.75,0,0,0-.127-1.455l-9.115-1.3c.606-1.226,3.25-3.416,13.428-5.886,5.039-1.223,10.131-2.065,12.59-2.442-.012.023-.025.051-.038.075-.063.123-.128.252-.2.388l-.078.159q-.093.192-.189.4l-.085.186q-.105.232-.212.482c-.022.05-.043.1-.064.148q-.138.328-.275.683c-.014.038-.028.078-.043.116-.074.2-.148.4-.22.606l-.081.24c-.058.176-.115.353-.171.535-.028.091-.056.182-.083.275-.055.188-.107.379-.158.573-.022.085-.045.168-.067.254-.069.28-.135.564-.194.854a.751.751,0,0,0,.673.9c.071.006.437.032,1.04.037h.055c.163,0,.358,0,.555-.005l.18,0c.185-.005.4-.015.609-.025.1,0,.189-.006.3-.012.2-.011.434-.03.658-.047.137-.01.263-.017.407-.03.224-.019.47-.048.711-.073.169-.018.327-.033.5-.054.245-.03.511-.07.772-.107.194-.027.379-.05.582-.082.264-.042.546-.095.824-.144.221-.039.434-.074.664-.119.282-.055.579-.122.873-.186.244-.052.482-.1.734-.16.3-.07.609-.153.917-.232.268-.069.53-.133.8-.21.309-.085.63-.185.948-.281.292-.088.578-.171.877-.267.319-.1.649-.221.976-.334s.623-.213.944-.332.663-.258,1-.39.666-.261,1.007-.405.675-.3,1.014-.45c.354-.158.705-.313,1.065-.485.339-.161.685-.34,1.028-.513.292-.148.578-.28.873-.436.006.015.015.034.021.05.044.108.094.224.148.348l.048.11c.068.153.142.314.226.487l.031.064c.076.156.16.321.249.492l.072.137c.1.2.217.4.34.616l.025.042c.116.2.242.408.374.62.032.052.064.1.1.154.148.233.3.469.471.713l.012.018c.162.234.337.473.518.716.043.058.087.115.132.174.384.5.813,1.022,1.289,1.548.057.062.113.124.171.186.237.257.483.515.744.773l.023.024c.266.263.548.526.839.788.072.065.145.129.218.194.275.243.56.486.858.726.028.023.055.047.084.07.321.257.66.512,1.009.765.087.064.177.127.267.19q.473.336.979.662c.053.034.1.069.157.1.381.242.78.479,1.19.711.105.06.214.119.321.178q.54.3,1.112.583c.06.03.114.062.174.091C996.9,1500.8,994.318,1498.769,994.039,1498.5Zm37.533,1.112a117.088,117.088,0,0,1-16.791,1.389c-.673-.237-1.316-.491-1.932-.757l-.19-.08c-.622-.274-1.213-.563-1.781-.861-.061-.033-.125-.064-.186-.1q-.857-.459-1.63-.948l-.11-.068a23.1,23.1,0,0,1-8.583-9.449l.429.117.133.036.44.118.232.062.47.123.285.073.513.131.3.075.594.148.187.046c.445.109.918.222,1.416.34l.316.074.646.149.484.11c.217.05.442.1.668.15l.54.119.7.152.584.124.734.154.642.131.748.152.744.146c.241.047.477.094.724.141q.712.137,1.456.274c.243.045.495.089.742.134.285.051.569.1.86.154l.819.142c.285.049.571.1.862.146s.565.094.851.141.6.1.909.146c.283.046.567.09.854.135l.981.149c.287.043.571.086.862.128.351.052.709.1,1.067.152.277.04.55.079.831.117.55.076,1.108.15,1.671.222l.849.107c.456.057.912.114,1.375.169.283.034.572.066.858.1.4.046.809.092,1.22.137l.919.1q.6.064,1.218.125l.95.092,1.266.115.931.082c.461.038.928.075,1.4.112.286.022.57.045.858.066q.92.069,1.855.128l.434.03q1.154.072,2.329.133c.238.013.479.023.719.034q.834.042,1.677.077c.3.012.594.022.892.033.516.019,1.033.036,1.554.051q.474.015.95.025c.253.007.5.015.757.02a97.663,97.663,0,0,1-12.4,3.373l-.575.114C1034.335,1499.146,1032.962,1499.4,1031.572,1499.616Zm11.4,25.434,3.532-5.886a.75.75,0,0,0-.643-1.136.739.739,0,0,0-.376.1,11.583,11.583,0,0,1-3.824,1.213l1.989-2.983a.749.749,0,0,0-.624-1.166h-2.084v-7.012c.159-.005.344-.014.548-.026h0c.241-.014.51-.035.8-.062l.219-.022c.229-.023.466-.049.723-.081.116-.014.238-.032.36-.049.235-.032.477-.067.732-.108.145-.023.291-.048.441-.074.258-.045.525-.1.8-.151.159-.032.315-.063.48-.1.3-.064.614-.139.931-.216.153-.037.3-.07.455-.111.477-.123.968-.258,1.476-.414.621-.19,1.232-.4,1.837-.622.192-.07.381-.147.571-.221.415-.16.826-.326,1.232-.5q.32-.137.633-.281c.392-.178.778-.364,1.162-.556.2-.1.392-.194.585-.3.453-.238.9-.487,1.339-.744.111-.065.224-.124.333-.189q.817-.489,1.606-1.025c.149-.1.293-.208.44-.311.379-.265.754-.535,1.122-.815.184-.14.365-.285.547-.429.166-.131.337-.257.5-.392l-7.158,16.7s-.031.08-.092.216-.154.332-.278.573l-.039.072c-.066.124-.14.259-.222.4a14.517,14.517,0,0,1-.906,1.4c-.228.311-.469.613-.715.9a12.891,12.891,0,0,1-4.122,3.2A12.545,12.545,0,0,1,1042.973,1525.05Zm12.81-4.1c.021,0,.04,0,.061,0,1.8,7.778,5.691,24.645,6.29,27.742a12.225,12.225,0,0,1,.173,4.8,6.409,6.409,0,0,0-1.568.349c-.065-.058-.142-.125-.2-.178-1.882-1.7-2.6-5.223-2.6-5.253l-5.155-27.064c.1-.129.209-.259.312-.392Zm1.3,46.864c-.085.745-.239,1.77-.437,2.659h-.316c-.2-.888-.352-1.913-.437-2.659-.053-.463-.072-.743-.072-.843a.667.667,0,0,1,1.334,0C1057.159,1567.067,1057.14,1567.347,1057.087,1567.81Zm9.968-4.425a2.316,2.316,0,0,1-1.566-.488,1.926,1.926,0,0,1-.453-1.556.752.752,0,0,0-.254-.607c-.075-.066-1.881-1.618-6.012-2.469a.751.751,0,0,0-.9.735v6.294c-.03-.025-.065-.044-.1-.067s-.084-.062-.129-.09a2.134,2.134,0,0,0-.215-.117c-.046-.022-.09-.045-.138-.064a2.007,2.007,0,0,0-.258-.08c-.043-.011-.083-.026-.127-.035a2.091,2.091,0,0,0-.823,0c-.044.009-.086.024-.129.035a2.231,2.231,0,0,0-.256.08c-.049.019-.094.043-.141.065a2.059,2.059,0,0,0-.211.115c-.046.029-.09.06-.133.092s-.065.041-.1.066v-6.8a.75.75,0,0,0-.718-.749c-.465-.02-.947-.031-1.449-.031h-4.51a5.078,5.078,0,0,1,4.51-2.752.748.748,0,0,0,.678-.431c.091-.192.857-1.994.058-6.13-.634-3.282-3.99-18.118-5.205-23.471.093-.05.177-.117.268-.169q.525-.3,1.024-.646c.144-.1.29-.2.431-.3a14.352,14.352,0,0,0,1.306-1.092l.009-.007,4.947,25.971c.032.164.812,4.039,3.067,6.081.157.142.34.3.54.479.963.842,2.484,2.119,4.521,3.8.7.578,1.362,1.119,1.919,1.573l.012.01c.172.141.334.273.484.394l.118.1.331.269.017.014.307.249.067.055.115.093.1.078a3.894,3.894,0,0,1,1.018,1.509h-1.955Zm.589,4.533a6.9,6.9,0,0,0,.5-1.9h0a4.638,4.638,0,0,0-.021-1.14h1.056A4.142,4.142,0,0,1,1067.644,1567.918Zm9.925,0a5.884,5.884,0,0,0,.475-3.032h1.054A4.146,4.146,0,0,1,1077.569,1567.915Zm-12.613-22.232a.666.666,0,0,0,.023.088c.091.285,2.254,6.986,4.474,9,1.1.995,3.359,2.874,5.061,4.275,1.792,1.475,3.342,2.732,3.467,2.832a3.913,3.913,0,0,1,1.018,1.509h-2.284a1.676,1.676,0,0,1-1.757-2.043.752.752,0,0,0-.255-.606c-.075-.066-1.88-1.618-6.013-2.469a.772.772,0,0,0-.151-.015.748.748,0,0,0-.75.75v.721c-.612-.5-1.4-1.144-2.243-1.837-.456-.376-.878-.724-1.281-1.059l-.28-.233c-.347-.287-.674-.56-.977-.815l-.134-.112c-.28-.235-.527-.444-.769-.65a5.309,5.309,0,0,1,.765-.054.75.75,0,0,0,.679-.431c.09-.192.857-1.994.057-6.13-.6-3.1-4.437-19.742-6.258-27.609.083-.016.164-.04.247-.058l.2-.048a8,8,0,0,0,1.007-.316c.049-.018.095-.041.143-.06a8.509,8.509,0,0,0,.939-.453c.03-.017.062-.032.093-.049l.042-.023Zm-2.758-30.075a8.824,8.824,0,0,1-2.109,2.326,7.712,7.712,0,0,1-.867.581,6.85,6.85,0,0,1-2.853.9h0c-.191.017-.383.034-.584.034h-1.647c.091-.15.172-.29.249-.426l.061-.11c.058-.106.113-.207.162-.3l.057-.108c.053-.1.1-.2.142-.287l.018-.036c.047-.1.084-.178.116-.25.012-.026.019-.044.029-.067q.03-.066.048-.111l.017-.042.021-.051,8.311-19.394c.593-.015,1.194-.062,1.8-.13.164-.019.33-.05.495-.072.488-.066.978-.146,1.474-.246.221-.045.444-.1.668-.147q.7-.162,1.4-.367c.214-.062.425-.12.64-.188.107-.034.213-.059.321-.094Zm40.385-62.776a.738.738,0,0,0-.6.265c-.118.141-2.794,3.4-2.992,9.678h-4.939a.75.75,0,0,0,0,1.5h4.87a20.287,20.287,0,0,1-2.266,7h-4.021a.75.75,0,0,0,0,1.5h3.227a51.33,51.33,0,0,1-3.616,5.586h-3.863a.75.75,0,0,0,0,1.5h2.627a72.045,72.045,0,0,1-5.43,5.593c-.011,0-.02-.006-.032-.006H1081.3a.75.75,0,0,0,0,1.5h2.615a46.057,46.057,0,0,1-12.617,8.06,22.916,22.916,0,0,1-8.423,1.756c-.014,0-.027.006-.041.006a.845.845,0,0,0-.084.013.764.764,0,0,0-.133.033c-.014.005-.028.008-.042.014s-.034.02-.052.029a.727.727,0,0,0-.133.094.5.5,0,0,0-.045.031,33.128,33.128,0,0,1-13.862,8.347,28.664,28.664,0,0,1-8.285,1.355h-7.754V1501c.385-.063.765-.136,1.148-.2.429-.075.858-.148,1.284-.227.344-.065.684-.136,1.027-.2a97.209,97.209,0,0,0,17.1-4.982q3.012-1.2,5.792-2.569l.041-.02q1-.489,1.963-1l.138-.071q.907-.481,1.785-.98l.24-.134c.538-.307,1.064-.622,1.585-.939.12-.073.243-.143.362-.216.473-.292.933-.591,1.392-.89.154-.1.313-.2.466-.3q.879-.586,1.723-1.191h0l.008-.006.03-.021c.484-.348.954-.7,1.415-1.055l.1-.075a44.255,44.255,0,0,0,6.463-6.045l.005-.006c.334-.387.651-.775.956-1.163.021-.027.044-.053.065-.079.283-.363.548-.726.807-1.088.037-.053.079-.1.115-.157.227-.323.435-.645.642-.968.058-.092.125-.184.182-.276.194-.311.369-.621.543-.932.057-.1.123-.2.178-.306.163-.3.307-.6.451-.9.053-.11.115-.221.165-.331.121-.262.222-.522.328-.782.059-.146.128-.293.182-.437.089-.236.158-.469.234-.7.054-.167.119-.336.167-.5.07-.243.12-.482.176-.722.036-.154.083-.31.113-.463.055-.281.09-.559.126-.836.014-.109.038-.219.049-.327a11.249,11.249,0,0,0,.059-1.138c0-.5-.022-1-.055-1.51-.009-.138-.019-.274-.031-.409-.036-.422-.084-.843-.147-1.266-.01-.064-.016-.132-.026-.2-.076-.465-.173-.928-.287-1.388-.025-.1-.053-.192-.079-.289q-.148-.555-.34-1.1c-.028-.079-.056-.159-.086-.238a12.081,12.081,0,0,0-8.074-7.509c-.053-.018-.108-.033-.161-.05-.437-.136-.889-.262-1.365-.371-.143-.033-.29-.06-.435-.09-.276-.057-.537-.125-.826-.172,3.387-1.44,8.5-4.66,14.57-11.859,3.847-4.559,8.409-6.827,13.593-6.8a19.82,19.82,0,0,1,9.521,2.692.543.543,0,0,0,.06.035c1.19.622,4.26,2.636,4.048,4.277l-.027.005a5.468,5.468,0,0,0-.966.175c-.037.01-.075.018-.111.029a4.61,4.61,0,0,0-.79.321c-.036.019-.073.036-.108.056a4.257,4.257,0,0,0-.64.435l-.092.077a4.357,4.357,0,0,0-.508.52l-.073.09a4.945,4.945,0,0,0-.393.581c-.017.03-.033.06-.049.09a5.418,5.418,0,0,0-.292.618c-.01.026-.019.051-.028.077a5.622,5.622,0,0,0-.2.633l-.011.047a5.849,5.849,0,0,0-.119.629l-5.144,1.286a.75.75,0,0,0,.182,1.478c.365,0,.719.01,1.067.025.1,0,.2.01.3.015.259.014.514.031.763.052l.261.022c.318.03.629.063.928.1l.143.02q.381.053.738.11l.249.043c.212.036.418.075.615.114.058.011.119.022.175.034.245.05.478.1.7.153l.149.037c.168.04.329.08.479.12l.173.046c.148.04.288.08.415.117l.067.019A9.551,9.551,0,0,1,1102.583,1452.832Zm8.848-6.3c-.078.113-.152.224-.22.336-.035.057-.068.113-.1.17-.063.111-.121.219-.175.326l-.072.142c-.064.135-.121.265-.172.389l-.017.042c-.056.14-.1.27-.142.393l-.008.022-.125-.037c-.121-.038-.248-.076-.39-.117l-.243-.068c-.148-.041-.3-.083-.472-.125-.1-.025-.19-.049-.292-.073-.186-.046-.384-.09-.589-.135-.1-.021-.191-.043-.294-.064-.315-.065-.644-.128-1-.187l1.283-.321a.745.745,0,0,0,.553-.634.571.571,0,0,0,.015-.083c0-.019,0-.049,0-.083l0-.058.005-.066a3.567,3.567,0,0,1,1.884-2.988c.018-.008.038-.014.057-.022a3.192,3.192,0,0,1,.375-.136c.05-.015.1-.026.158-.038.109-.027.22-.051.339-.069.075-.011.155-.018.234-.025s.15-.011.227-.014a15.139,15.139,0,0,1,1.562,1.3c-.055.033-.1.069-.152.1-.158.1-.311.2-.455.307-.075.054-.15.109-.222.165-.144.112-.278.226-.407.342-.053.048-.111.095-.162.143-.172.163-.332.328-.478.494l-.049.06q-.19.224-.352.444C1111.5,1446.419,1111.469,1446.473,1111.431,1446.529Zm4.423,3.7a.753.753,0,0,0-.544-.233.523.523,0,0,0-.057,0,5.426,5.426,0,0,1-3.379-.927l.008-.029c.018-.072.043-.154.071-.242l.023-.073c.037-.107.081-.225.134-.35.008-.02.019-.042.028-.063.048-.11.1-.226.167-.346.017-.032.033-.064.051-.1.078-.141.165-.286.265-.435.016-.024.035-.048.052-.072.089-.129.19-.26.3-.392l.091-.108a6,6,0,0,1,.439-.454c.024-.023.053-.045.078-.068.145-.13.305-.259.474-.384.046-.034.091-.068.139-.1a7.193,7.193,0,0,1,.659-.411l.027-.013c1.6,1.925,2.071,3.748,1.418,5.447A2.37,2.37,0,0,0,1115.854,1450.229Z" fill="#1a1a1a"/>
      <path id="Path_931" data-name="Path 931" d="M1103.305,1442.951a2.846,2.846,0,0,0-.226-1.116,4.06,4.06,0,0,1,1.72.87.75.75,0,0,0,1.2-.906c-.22-.3-2.43-2.9-12.034-1.718a.75.75,0,0,0,.183,1.489,36.843,36.843,0,0,1,3.954-.288,2.849,2.849,0,0,0-.544,1.669,2.876,2.876,0,0,0,5.752,0Zm-2.876,1.376a1.376,1.376,0,1,1,1.376-1.376A1.377,1.377,0,0,1,1100.429,1444.327Z" fill="#1a1a1a"/>
      <path id="Path_932" data-name="Path 932" d="M1103.972,1574.721h-85.039a.75.75,0,0,0,0,1.5h85.039a.75.75,0,0,0,0-1.5Z" fill="#1a1a1a"/>
      <path id="Path_933" data-name="Path 933" d="M1068.539,1492.538h-5.669a.75.75,0,0,0,0,1.5h5.669a.75.75,0,0,0,0-1.5Z" fill="#1a1a1a"/>
      <path id="Path_934" data-name="Path 934" d="M1077.043,1488.286h-5.669a.75.75,0,0,0,0,1.5h5.669a.75.75,0,0,0,0-1.5Z" fill="#1a1a1a"/>
      <path id="Path_935" data-name="Path 935" d="M1084.13,1481.2h-5.67a.75.75,0,0,0,0,1.5h5.67a.75.75,0,0,0,0-1.5Z" fill="#1a1a1a"/>
      <path id="Path_936" data-name="Path 936" d="M1089.8,1474.113h-5.669a.75.75,0,0,0,0,1.5h5.669a.75.75,0,0,0,0-1.5Z" fill="#1a1a1a"/>
      <path id="Path_937" data-name="Path 937" d="M1091.216,1467.027h-5.669a.75.75,0,0,0,0,1.5h5.669a.75.75,0,0,0,0-1.5Z" fill="#1a1a1a"/>
      <path id="Path_938" data-name="Path 938" d="M1083.38,1460.69a.75.75,0,0,0,.75.75h5.669a.75.75,0,0,0,0-1.5h-5.669A.75.75,0,0,0,1083.38,1460.69Z" fill="#1a1a1a"/>
      <path id="Path_939" data-name="Path 939" d="M1096.886,1455.688h-5.67a.75.75,0,0,0,0,1.5h5.67a.75.75,0,0,0,0-1.5Z" fill="#1a1a1a"/>
      <path id="Path_940" data-name="Path 940" d="M1086.3,1455.021a.75.75,0,0,0-.75-.75h-5.669a.75.75,0,0,0,0,1.5h5.669A.75.75,0,0,0,1086.3,1455.021Z" fill="#1a1a1a"/>
    </g>
  </g>
</svg>